<svg width="28" height="29" fill="none" xmlns="http://www.w3.org/2000/svg"><g clip-path="url(#clip0)"><path d="M25.698 7.515a4.232 4.232 0 01-.84.683l-4.774-4.943c.173-.305.391-.594.66-.872a1.4 1.4 0 000-1.928 1.286 1.286 0 00-1.862 0c-2.136 2.213-2.168 4.887-1.794 7.302-2.714-.58-5.714-.826-8.11 1.655-1.082 1.121-1.704 2.438-1.902 4.027a.423.423 0 00.355.476c.224.03.43-.134.46-.367.173-1.395.719-2.551 1.669-3.535 2.206-2.285 4.994-1.956 7.686-1.352.08.417.152.744.23 1.103-2.675-.63-5.266-1.076-7.22.977C5.89 15.271 13.31 23 8.429 28.055c-.193.2-.507.2-.7 0a.526.526 0 010-.725c3.096-3.206.33-7.812.113-12.222a.415.415 0 00-.43-.403.42.42 0 00-.39.446c.045.915.195 1.832.36 2.66-2.332-.387-4.914-.355-7.05 1.858a1.397 1.397 0 000 1.927 1.284 1.284 0 001.862 0c.268-.277.547-.503.841-.682l4.773 4.943a4.276 4.276 0 01-.66.871 1.4 1.4 0 000 1.928 1.286 1.286 0 001.862 0c2.136-2.212 2.168-4.887 1.794-7.301 3.098.661 5.866.668 8.11-1.655 2.395-2.48 2.156-5.588 1.597-8.4.779.129 1.562.206 2.35.18a.42.42 0 00.397-.438.417.417 0 00-.423-.412c-.736.024-1.54-.047-2.513-.225-.079-.359-.156-.697-.243-1.086 2.279.475 4.447.614 6.201-1.202.193-.2.507-.2.7 0 .194.2.194.524 0 .725-.768.796-1.636 1.313-2.653 1.58a.427.427 0 00-.297.516.41.41 0 00.499.308c1.164-.306 2.156-.895 3.032-1.803.248-.257.385-.6.385-.964 0-1.21-1.422-1.818-2.247-.964zM1.612 20.995c-.193.2-.506.2-.7 0a.525.525 0 010-.725c1.33-1.378 2.89-1.792 4.44-1.792.75 0 1.499.097 2.218.229l.243 1.086c-2.279-.475-4.447-.615-6.2 1.202zm2.229-.449c1.114-.354 2.447-.219 4.168.159.364 1.782.495 3.162.153 4.317L3.84 20.546zm6.368-2.12c-.313-1.4-.59-2.707-.578-3.89l4.333 4.488c-1.141.013-2.403-.274-3.755-.598zm4.808.487L9.74 13.446c.13-.645.388-1.245.824-1.791l6.184 6.404a3.86 3.86 0 01-1.73.854zm2.31-1.456l-6.183-6.404a3.862 3.862 0 011.73-.854l5.278 5.467a4.125 4.125 0 01-.824 1.791zm.355-6.771c.313 1.4.59 2.707.578 3.889l-4.333-4.488c1.141-.012 2.403.274 3.755.599zm.65 8.413c-2.207 2.285-4.995 1.956-7.687 1.351a41.983 41.983 0 00-.23-1.102c2.71.638 5.247 1.066 7.217-.974 4.338-4.493-3.023-12.29 1.83-17.317.194-.2.508-.2.7 0 .194.2.194.525 0 .725-4.362 4.519 3.05 12.262-1.83 17.317zm1.55-10.692c-.364-1.782-.495-3.162-.152-4.317l4.32 4.476c-1.114.354-2.447.219-4.168-.159z" fill="#66CCC9"/></g><defs><clipPath id="clip0"><path fill="#fff" d="M0 0h28v29H0z"/></clipPath></defs></svg>