<svg width="165" height="173" fill="none" xmlns="http://www.w3.org/2000/svg"><path d="M29.994 13.822C8.814 40.152 6.91 63.43 2.209 83.185c-2.137 12.731-4.163 35.666 1.282 54.876 9.832 34.682 42.746 34.682 52.15 33.804 9.404-.878 37.616-4.39 74.377-28.536 36.761-24.145 40.607-53.559 29.494-74.631-13.429-25.463-46.333-50.925-72.667-61.9-16.921-7.053-40.608-13.17-56.852 7.024z" fill="url(#paint0_linear)"/><g clip-path="url(#clip0)" fill="#fff"><path d="M79.125 116.85a37.725 37.725 0 0016.397-16.284 38.143 38.143 0 004.228-17.407V71.774a34.37 34.37 0 01-20.625-5.383v-2.114l.165-.248a32.418 32.418 0 0018.47 5.744c.907 0 1.866-.04 2.939-.134l1.113-.093V83.16a40.184 40.184 0 01-4.454 18.356c-3.97 7.673-10.395 13.891-18.15 17.583l-.083-.165v-2.083z"/><path d="M79.125 116.85v2.083h-2.063v-2.083c.34.175.681.34 1.032.505.35-.165.69-.33 1.031-.505z"/><path d="M79.125 66.39v50.46c-.34.175-.68.34-1.031.505-.35-.165-.691-.33-1.031-.505V66.39c.35-.216.69-.443 1.03-.68.341.237.681.464 1.032.68z"/><path d="M79.125 64.277v2.114a24.43 24.43 0 01-1.031-.68c-.34.237-.68.463-1.031.68v-2.114h2.062zm-6.662 49.83a36.005 36.005 0 004.6 2.743v2.083h2.062l.083.165c-.227.113-.454.227-.691.33l-.423.196-.423-.196a39.897 39.897 0 01-6.383-3.63 33.435 33.435 0 01-1.64-1.207l1.268-1.629c.495.392 1.021.773 1.547 1.145zm-3.65-10.643c0 1.258.608 2.063 1.03 2.063.423 0 1.032-.805 1.032-2.063s-.609-2.062-1.031-2.062c-.423 0-1.031.804-1.031 2.062zm-1.032 1.032v-2.063h-.938c.34-1.794 1.536-3.094 3-3.094 1.733 0 3.094 1.815 3.094 4.125s-1.36 4.125-3.093 4.125c-1.465 0-2.66-1.299-3.001-3.093h.938z"/><path d="M67.781 102.433v2.063h-.938a5.565 5.565 0 01-.093-1.032c0-.361.03-.701.093-1.031h.938z"/><path d="M66.75 103.464c0 .361.03.702.093 1.032h-1.186a8.526 8.526 0 000-2.063h1.186c-.062.33-.093.67-.093 1.031z"/><path d="M65.719 103.464c0 .351-.02.691-.062 1.032h-.97v-2.063h.97c.041.34.062.681.062 1.031zm1.227-9.477c-.433-.443-.959-.742-1.444-.846a1.552 1.552 0 00-.299-.03c-.196 0-.35.051-.443.144-.134.134-.175.412-.103.742.093.485.402 1.011.835 1.444.433.433.96.743 1.444.835.33.062.608.021.742-.103.134-.134.176-.412.103-.742-.092-.485-.402-1.01-.835-1.444zm-3.64-2.196c.629-.63 1.578-.877 2.599-.67.886.175 1.773.68 2.505 1.402.722.732 1.217 1.619 1.403 2.506.196 1.02-.041 1.97-.68 2.598-.485.485-1.156.743-1.908.743-.227 0-.454-.02-.691-.072a4.74 4.74 0 01-1.702-.732l.66-.67-1.464-1.455-.66.66c-.361-.536-.62-1.114-.733-1.701-.206-1.021.031-1.97.67-2.61zm2.196 21.986c.485-.093 1.01-.402 1.444-.836.443-.433.742-.959.835-1.443.072-.33.031-.609-.103-.743-.093-.093-.248-.144-.444-.144-.092 0-.195.01-.298.031-.485.103-1.011.402-1.444.845-.433.434-.743.959-.836 1.444-.072.33-.03.609.103.743.093.092.248.134.434.134.103 0 .206-.011.31-.031zm-1.475-2.29l1.465-1.464-.66-.66a4.729 4.729 0 011.701-.732c1.021-.206 1.97.031 2.599.67.64.629.877 1.578.68 2.599-.185.887-.68 1.774-1.402 2.506-.36.361-.773.67-1.196.897a4.32 4.32 0 01-1.31.505 3.927 3.927 0 01-.69.062c-.754 0-1.424-.258-1.908-.742-.485-.485-.743-1.145-.743-1.898 0-.227.02-.464.072-.701a4.74 4.74 0 01.732-1.702l.66.66z"/><path d="M64.028 111.487l-.66-.66a5.337 5.337 0 011.464-1.464l.66.66-1.464 1.464zm-.66-15.386l.66-.66 1.464 1.454-.66.67a6.154 6.154 0 01-.804-.67 5.99 5.99 0 01-.66-.794z"/><path d="M63.986 98.411a8.205 8.205 0 00-1.464-1.464l.845-.846c.196.278.413.547.66.794.248.248.526.475.805.67l-.846.846zm.041 11.612a5.354 5.354 0 00-.66.804l-.845-.845a8.202 8.202 0 001.464-1.465l.846.846a5.351 5.351 0 00-.805.66z"/><path d="M63.306 99.092l-1.465-1.465.68-.68a8.199 8.199 0 011.465 1.464l-.68.68zm.68 9.425a8.195 8.195 0 01-1.464 1.465l-.68-.681 1.464-1.464.68.68zm-5.486 4.321v.939h-2.063v-.939c.33-.061.67-.092 1.032-.092.36 0 .701.031 1.031.092zm0-17.562v.97h-2.063v-.97a8.53 8.53 0 012.063 0z"/><path d="M57.469 112.746c-.361 0-.702.031-1.032.093v-1.186a8.584 8.584 0 002.063 0v1.186a5.548 5.548 0 00-1.031-.093zm0-17.532a8.6 8.6 0 00-1.032.062V94.09c.33.062.67.093 1.032.093.36 0 .701-.03 1.031-.093v1.186a8.51 8.51 0 00-1.031-.062z"/><path d="M57.469 111.714c-.35 0-.691-.02-1.032-.062v-.969H58.5v.969a8.37 8.37 0 01-1.031.062zm-1.031-18.562H58.5v.938c-.33.062-.67.093-1.031.093-.361 0-.702-.03-1.032-.093v-.938zm-.949-23.512a34.1 34.1 0 002.939.133 32.48 32.48 0 0019.068-6.156l.598-.433.598.433c.196.144.392.278.598.413l-.165.247h-2.063v2.114c-5.568 3.568-11.972 5.445-18.634 5.445-.64 0-1.29-.02-1.99-.062V83.16c0 .65.02 1.3.051 1.939l-2.062.103c-.031-.68-.052-1.35-.052-2.042V69.547l1.114.093z"/><path d="M57.469 90.058c-1.258 0-2.063.608-2.063 1.031 0 .423.805 1.032 2.063 1.032s2.062-.609 2.062-1.032c0-.422-.804-1.03-2.062-1.03zm-3.197-.949c.753-.68 1.897-1.113 3.197-1.113 2.31 0 4.125 1.36 4.125 3.093 0 1.465-1.3 2.661-3.094 3.001v-.938h-2.063v.938c-1.794-.34-3.093-1.536-3.093-3 0-.764.35-1.444.928-1.98zm5.259 26.73c0-.423-.804-1.031-2.062-1.031-1.258 0-2.063.608-2.063 1.031 0 .423.805 1.031 2.063 1.031s2.062-.608 2.062-1.031zm-3.093-2.062H58.5v-.939c1.794.34 3.094 1.537 3.094 3.001 0 1.733-1.815 3.094-4.125 3.094s-4.125-1.361-4.125-3.094c0-1.464 1.3-2.661 3.093-3.001v.939z"/><path d="M50.25 83.159V64.535l1.382.288c8.178 1.99 16.727.32 23.502-4.599l2.96-2.124 2.95 2.124a28.394 28.394 0 0023.46 4.61l1.434-.29V83.16a44.312 44.312 0 01-4.92 20.254 43.871 43.871 0 01-22.543 20.522l-.381.154-.382-.154a43.978 43.978 0 01-9.405-5.208 33.314 33.314 0 01-1.567-1.196l1.268-1.599.01-.01c.495.392.98.773 1.496 1.134a41.853 41.853 0 008.58 4.806 41.706 41.706 0 0021.089-19.398 42.143 42.143 0 004.692-19.305V67.092c-8.353 1.722-17.067-.144-24.038-5.197l-1.743-1.259-1.753 1.259a30.478 30.478 0 01-24.028 5.197V83.16c0 1.464.072 2.908.216 4.29l-2.042.227a43.11 43.11 0 01-.237-4.517zm2.846 14.468l-1.464 1.465-.68-.68a8.201 8.201 0 011.464-1.465l.68.68zm-1.464 10.21l1.464 1.464-.68.681a8.198 8.198 0 01-1.465-1.465l.68-.68z"/><path d="M50.952 98.411l-.846-.846a6.16 6.16 0 00.804-.67c.248-.247.464-.516.65-.794l.856.846a8.199 8.199 0 00-1.464 1.464z"/><path d="M51.281 103.464a6.192 6.192 0 006.188 6.188 6.192 6.192 0 006.187-6.188 6.192 6.192 0 00-6.187-6.187 6.192 6.192 0 00-6.188 6.187zm-1.03 1.032v-2.063h-.97a8.246 8.246 0 011.67-4.022l.681.681 1.464-1.464-.68-.681a8.244 8.244 0 014.022-1.67v.969H58.5v-.97a8.244 8.244 0 014.022 1.671l-.68.68 1.464 1.465.68-.68a8.246 8.246 0 011.671 4.021h-.97v2.063h.97a8.25 8.25 0 01-1.67 4.022l-.681-.681-1.465 1.464.681.681a8.245 8.245 0 01-4.022 1.671v-.97h-2.062v.97a8.245 8.245 0 01-4.022-1.671l.68-.681-1.464-1.464-.68.681a8.25 8.25 0 01-1.671-4.022h.97zm-.805-7.59L50.9 95.44l.66.66a5.218 5.218 0 01-.65.794 6.161 6.161 0 01-.804.67l-.66-.66z"/><path d="M50.106 109.363l.846-.846a8.195 8.195 0 001.464 1.465l-.846.845a5.354 5.354 0 00-1.464-1.464z"/><path d="M50.91 111.487l-1.464-1.464.66-.66a5.337 5.337 0 011.464 1.464l-.66.66zm-.66-9.054v2.063h-.97a8.547 8.547 0 010-2.063h.97z"/><path d="M48.188 103.464c0-.361-.031-.701-.093-1.031h1.186a8.51 8.51 0 000 2.063h-1.186c.062-.33.093-.671.093-1.032z"/><path d="M48.188 103.464c0 .361-.031.702-.093 1.032h-.939v-2.063h.939c.062.33.093.67.093 1.031zm-.186-7.188c.484-.092 1.01-.402 1.443-.835.434-.433.743-.959.836-1.444.072-.33.03-.608-.103-.742-.093-.093-.248-.144-.444-.144-.093 0-.196.01-.299.03-.485.104-1.01.403-1.444.846-.433.433-.742.96-.835 1.444-.072.33-.03.608.103.742.134.124.413.165.743.103zm-2.878-1.247c.186-.887.681-1.774 1.403-2.506.732-.722 1.619-1.227 2.506-1.403 1.02-.206 1.97.041 2.599.67.484.496.742 1.166.742 1.919 0 .227-.02.453-.072.69a4.52 4.52 0 01-.742 1.702l-.66-.66-1.455 1.465.66.66a4.74 4.74 0 01-1.701.732 3.216 3.216 0 01-.691.072c-.753 0-1.423-.258-1.908-.743-.64-.629-.877-1.577-.68-2.598zm2.878 15.623c-.33-.072-.609-.031-.743.103s-.175.413-.103.743c.093.485.402 1.011.835 1.444.434.433.96.742 1.444.835.33.072.608.031.743-.103.134-.134.175-.413.103-.743-.093-.484-.402-1.01-.836-1.443-.433-.444-.959-.743-1.443-.836zm-1.475 3.754c-.722-.732-1.217-1.619-1.403-2.506-.196-1.021.042-1.97.681-2.599.485-.484 1.145-.742 1.898-.742.226 0 .464.02.7.072a4.729 4.729 0 011.702.732l-.66.66 1.465 1.465.66-.66c.36.536.618 1.124.732 1.701.206 1.021-.031 1.97-.67 2.599-.485.485-1.155.742-1.908.742a4.02 4.02 0 01-.691-.061c-.887-.186-1.774-.681-2.506-1.403z"/><path d="M48.095 104.496c-.34 1.794-1.537 3.093-3.001 3.093-1.733 0-3.094-1.815-3.094-4.125s1.361-4.125 3.094-4.125c1.464 0 2.66 1.3 3 3.094h-.938v2.063h.939zm-1.97-1.032c0-1.258-.608-2.062-1.031-2.062-.423 0-1.032.804-1.032 2.062 0 1.258.609 2.063 1.032 2.063.423 0 1.031-.805 1.031-2.063z"/></g><defs><linearGradient id="paint0_linear" x1="20.862" y1="152.243" x2="140.964" y2="53.557" gradientUnits="userSpaceOnUse"><stop stop-color="#FF992D"/><stop offset="1" stop-color="#FEC200"/></linearGradient><clipPath id="clip0"><path fill="#fff" transform="translate(42 58.09)" d="M0 0h66v66H0z"/></clipPath></defs></svg>