<svg width="165" height="173" fill="none" xmlns="http://www.w3.org/2000/svg"><path d="M29.994 13.822C8.814 40.152 6.91 63.43 2.209 83.185c-2.137 12.731-4.163 35.666 1.282 54.876 9.832 34.682 42.746 34.682 52.15 33.804 9.404-.878 37.616-4.39 74.377-28.536 36.761-24.145 40.607-53.559 29.494-74.631-13.429-25.463-46.333-50.925-72.667-61.9-16.921-7.053-40.608-13.17-56.852 7.024z" fill="url(#paint0_linear)"/><path d="M84.135 98.156h3.528v1.938h-3.528v-1.938zm0 4.906h3.528V105h-3.528v-1.938zM64.098 97.81v-1.937a5.856 5.856 0 00-4.096 1.674 5.67 5.67 0 00-1.7 4.031h1.968a3.741 3.741 0 011.122-2.663 3.864 3.864 0 012.706-1.105zm14.659-24.266l1.392-1.37a5.856 5.856 0 00-4.1-1.666c-1.536 0-3.01.6-4.098 1.667l1.392 1.37a3.863 3.863 0 012.707-1.103c1.015 0 1.988.397 2.707 1.103z" fill="#fff"/><path d="M54.659 107.904c.234 0 .47-.027.706-.042a10.763 10.763 0 003.833 3.219 10.949 10.949 0 004.9 1.16h30.22a10.925 10.925 0 007.595-3.158 10.577 10.577 0 003.137-7.504c0-2.81-1.127-5.507-3.137-7.504a10.922 10.922 0 00-7.595-3.159h-11.33v1.938h11.334a8.936 8.936 0 016.209 2.587 8.653 8.653 0 012.564 6.138 8.654 8.654 0 01-2.564 6.137 8.938 8.938 0 01-6.209 2.588H80.195v-18.42a.96.96 0 00-.289-.684.992.992 0 00-.696-.284h-2.784l7.285-7.169c2.032-2 3.173-4.711 3.173-7.539 0-2.828-1.141-5.54-3.173-7.54a10.923 10.923 0 00-7.661-3.122 10.92 10.92 0 00-7.661 3.123L57.704 79.186a.961.961 0 000 1.37L68.236 90.92h-4.134c-1.809-.004-3.59.44-5.18 1.288a10.75 10.75 0 00-3.92 3.572 10.495 10.495 0 00-.78 10.16 8.94 8.94 0 01-4.752-1.645 8.729 8.729 0 01-3.07-3.929 8.584 8.584 0 01-.395-4.942 8.672 8.672 0 012.409-4.354l8.015-7.886-1.392-1.37-8.02 7.886a10.612 10.612 0 00-2.964 5.455 10.507 10.507 0 00.612 6.157 10.703 10.703 0 003.982 4.786 10.961 10.961 0 006.012 1.805zM59.79 79.87l9.99-9.83a8.874 8.874 0 012.877-1.921 8.99 8.99 0 016.818-.027 8.878 8.878 0 012.892 1.898 8.718 8.718 0 011.929 2.847 8.606 8.606 0 01-.028 6.71 8.721 8.721 0 01-1.951 2.83l-8.675 8.54h-2.628L59.791 79.87zm4.307 12.982h14.128v17.452H64.098a8.94 8.94 0 01-6.209-2.588 8.655 8.655 0 01-2.564-6.137c0-2.299.921-4.504 2.564-6.138a8.937 8.937 0 016.209-2.587v-.002z" fill="#fff"/><path d="M96.271 64.293l.767-.766L74 55.66l.002-1H74a34.395 34.395 0 00-22.31 8.17l.648.763-.648-.762c-14.483 12.292-16.26 33.997-3.968 48.48l.703.827.767-.767L96.27 64.293zM51.73 113.885l-.767.767.826.702a34.272 34.272 0 0022.21 8.164 34.396 34.396 0 0022.31-8.171c14.484-12.292 16.26-33.997 3.969-48.48l-.702-.828-.767.768-47.08 47.078zM36 89.089c0-20.986 17.013-38 38-38 20.977.023 37.978 17.024 38 38.001-.001 20.987-17.013 37.999-38 37.999s-38-17.013-38-38z" fill="#709BF1" stroke="#fff" stroke-width="2"/><defs><linearGradient id="paint0_linear" x1="20.862" y1="152.243" x2="140.964" y2="53.557" gradientUnits="userSpaceOnUse"><stop stop-color="#9586EF"/><stop offset="1" stop-color="#59A7F2"/></linearGradient></defs></svg>