<svg width="165" height="173" fill="none" xmlns="http://www.w3.org/2000/svg"><path d="M29.994 13.822C8.814 40.152 6.91 63.43 2.209 83.185c-2.137 12.731-4.163 35.666 1.282 54.876 9.832 34.682 42.746 34.682 52.15 33.804 9.404-.878 37.616-4.39 74.377-28.536 36.761-24.145 40.607-53.559 29.494-74.631-13.429-25.463-46.333-50.925-72.667-61.9-16.921-7.053-40.608-13.17-56.852 7.024z" fill="url(#paint0_linear)"/><path d="M106.1 63.864c-1.087-4.612-6.837-7.775-9.85-7.775a14.824 14.824 0 00-5.813.963c-4.025-5.388-9.6-8.463-15.437-8.463a20.65 20.65 0 00-16.7 8.425 11.35 11.35 0 00-4.55-.925 8.764 8.764 0 00-8.675 7.575A8.764 8.764 0 0037.5 72.34a13.759 13.759 0 0013.75 13.75h51.25c5.887 0 10-4.625 10-11.25 0-5.525-2.375-9.562-6.4-10.975zm-3.6 19.725H86.25a4.231 4.231 0 01-3.313-1.912 4.105 4.105 0 01-.8-3.513 4.366 4.366 0 015.488-2.75l.787-2.362a6.856 6.856 0 00-8.65 4.325 6.457 6.457 0 001.15 5.762c.113.163.238.3.35.45H68.737c.113-.15.238-.287.35-.45a6.457 6.457 0 001.15-5.762 6.783 6.783 0 00-3.437-3.95 6.698 6.698 0 00-5.212-.375l.787 2.362a4.367 4.367 0 015.487 2.75 4.105 4.105 0 01-.8 3.513 4.232 4.232 0 01-3.312 1.912h-12.5A11.267 11.267 0 0140 72.34a6.262 6.262 0 015.1-6.137 5.925 5.925 0 004.663 4.862c.345.07.697.104 1.05.1a6.061 6.061 0 005.287-3.237l-2.2-1.175a3.517 3.517 0 01-3.663 1.862 3.525 3.525 0 01-2.737-3.7h-.013c0-.025.013-.05.013-.075a6.25 6.25 0 016.25-6.25c1.557.004 3.09.39 4.462 1.125a1.238 1.238 0 001.413-.25l.013.013a4.21 4.21 0 013.687-1 4.15 4.15 0 013.063 1.925 4.351 4.351 0 01-1.95 5.825l1.124 2.225a6.86 6.86 0 003.05-9.175 6.482 6.482 0 00-4.887-3.263 8.361 8.361 0 00-1.113-.1A18.605 18.605 0 0175 51.09a15.832 15.832 0 0111.138 4.838 6.686 6.686 0 00-1.113.087 6.482 6.482 0 00-4.888 3.263 6.861 6.861 0 003.05 9.175l1.126-2.225a4.351 4.351 0 01-1.95-5.825 4.15 4.15 0 013.062-1.925 4.21 4.21 0 013.688 1l.012-.013a1.25 1.25 0 001.35.288l.375-.163a11.767 11.767 0 015.4-1 10.235 10.235 0 016.312 3.688 7.203 7.203 0 00-2.537-.013 6.482 6.482 0 00-4.888 3.263 6.861 6.861 0 003.05 9.175l1.126-2.225a4.351 4.351 0 01-1.95-5.825 4.15 4.15 0 013.062-1.925 4.212 4.212 0 013.688 1l.012-.013c.156.164.356.281.575.338 3.312.837 5.3 4.125 5.3 8.787 0 4.35-2.325 8.75-7.5 8.75z" fill="#fff"/><path d="M49 94.84a4.254 4.254 0 00-4.25 4.25 4.254 4.254 0 004.25 4.249 4.254 4.254 0 004.25-4.25A4.255 4.255 0 0049 94.84zm0 6.703a2.457 2.457 0 01-2.454-2.454A2.457 2.457 0 0149 96.635a2.457 2.457 0 012.454 2.454A2.457 2.457 0 0149 101.543z" fill="#fff" stroke="#fff" stroke-width=".5"/><path d="M39.885 97.476c.259.106.529.156.794.156.777 0 1.531-.432 1.867-1.175h0a1.892 1.892 0 00-.28-2c1.565-2.053 4.052-3.273 6.734-3.273 4.6 0 8.315 3.562 8.315 7.905 0 .493-.048.982-.143 1.463-.724.051-1.404.475-1.717 1.169l.319.144-.32-.144a1.892 1.892 0 00.28 2c-1.563 2.058-4.034 3.274-6.734 3.274-3.978 0-7.401-2.697-8.16-6.384a.74.74 0 00-.866-.567.723.723 0 00-.586.851h0c.902 4.384 4.953 7.544 9.612 7.544 1.696 0 3.368-.422 4.838-1.221l-.167-.308.167.308a9.73 9.73 0 003.197-2.786c.094.013.188.019.28.019.778 0 1.532-.433 1.867-1.175.375-.83.1-1.762-.587-2.297a8.952 8.952 0 00.2-1.89c0-5.171-4.41-9.35-9.795-9.35-3.21 0-6.195 1.49-8.036 4.008-.875-.118-1.772.326-2.146 1.156-.453 1.003.042 2.153 1.067 2.573zm0 0l.132-.324-.133.324s0 0 0 0zm.289-1.99h0c-.11.243.001.542.285.658.29.12.616-.016.73-.269l-1.015-.39zm0 0a.554.554 0 01.509-.314c.074 0 .15.014.222.044l.128-.313m-.86.582l.86-.582m0 0l-.128.313a.495.495 0 01.285.66l-.157-.973zm16.794 7.791c-.115.253-.44.388-.732.269a.494.494 0 01-.285-.659.57.57 0 01.731-.27h0a.495.495 0 01.286.66z" fill="#fff" stroke="#fff" stroke-width=".7"/><path d="M50 117.339v-3.75h-2.5v3.75a6.26 6.26 0 006.25 6.25h10v-2.5h-10a3.75 3.75 0 01-3.75-3.75z" fill="#fff"/><mask id="a" maskUnits="userSpaceOnUse" x="63" y="106.089" width="24" height="24" fill="#000"><path fill="#fff" d="M63 106.089h24v24H63z"/><path d="M85.656 117.746h-1.375a9.28 9.28 0 00-8.937-8.929v-1.384a.345.345 0 00-.344-.344.346.346 0 00-.344.344v1.384a9.28 9.28 0 00-8.929 8.929h-1.383a.345.345 0 00-.344.343.342.342 0 00.344.344h1.383a9.281 9.281 0 008.938 8.938v1.375a.345.345 0 00.344.343.345.345 0 00.343-.343v-1.375a9.284 9.284 0 008.93-8.938h1.374a.342.342 0 00.344-.344.345.345 0 00-.344-.343zm-10.312 8.937v-5.008l2.33 2.329a.346.346 0 00.467-.018.347.347 0 00.018-.467l-2.922-2.922a.344.344 0 00-.484 0l-2.922 2.922a.344.344 0 00.484.485l2.341-2.329v5.008a8.6 8.6 0 01-8.241-8.25h5l-2.33 2.331a.342.342 0 00.486.484l2.921-2.921a.346.346 0 000-.485l-2.922-2.922a.342.342 0 00-.466.018.343.343 0 00-.018.467l2.329 2.341h-5a8.604 8.604 0 018.241-8.242v5l-2.33-2.329a.343.343 0 00-.485.485l2.922 2.922a.344.344 0 00.484 0l2.922-2.922a.346.346 0 00-.018-.467.343.343 0 00-.466-.018l-2.341 2.329v-5a8.606 8.606 0 018.25 8.25h-5.009l2.33-2.339a.343.343 0 00-.486-.485l-2.921 2.922a.346.346 0 000 .485l2.922 2.922a.344.344 0 00.484 0 .346.346 0 000-.485l-2.329-2.341h5.009a8.606 8.606 0 01-8.25 8.25z"/></mask><path d="M85.656 117.746h-1.375a9.28 9.28 0 00-8.937-8.929v-1.384a.345.345 0 00-.344-.344.346.346 0 00-.344.344v1.384a9.28 9.28 0 00-8.929 8.929h-1.383a.345.345 0 00-.344.343.342.342 0 00.344.344h1.383a9.281 9.281 0 008.938 8.938v1.375a.345.345 0 00.344.343.345.345 0 00.343-.343v-1.375a9.284 9.284 0 008.93-8.938h1.374a.342.342 0 00.344-.344.345.345 0 00-.344-.343zm-10.312 8.937v-5.008l2.33 2.329a.346.346 0 00.467-.018.347.347 0 00.018-.467l-2.922-2.922a.344.344 0 00-.484 0l-2.922 2.922a.344.344 0 00.484.485l2.341-2.329v5.008a8.6 8.6 0 01-8.241-8.25h5l-2.33 2.331a.342.342 0 00.486.484l2.921-2.921a.346.346 0 000-.485l-2.922-2.922a.342.342 0 00-.466.018.343.343 0 00-.018.467l2.329 2.341h-5a8.604 8.604 0 018.241-8.242v5l-2.33-2.329a.343.343 0 00-.485.485l2.922 2.922a.344.344 0 00.484 0l2.922-2.922a.346.346 0 00-.018-.467.343.343 0 00-.466-.018l-2.341 2.329v-5a8.606 8.606 0 018.25 8.25h-5.009l2.33-2.339a.343.343 0 00-.486-.485l-2.921 2.922a.346.346 0 000 .485l2.922 2.922a.344.344 0 00.484 0 .346.346 0 000-.485l-2.329-2.341h5.009a8.606 8.606 0 01-8.25 8.25z" fill="#fff"/><path d="M85.656 117.746h-1.375a9.28 9.28 0 00-8.937-8.929v-1.384a.345.345 0 00-.344-.344.346.346 0 00-.344.344v1.384a9.28 9.28 0 00-8.929 8.929h-1.383a.345.345 0 00-.344.343.342.342 0 00.344.344h1.383a9.281 9.281 0 008.938 8.938v1.375a.345.345 0 00.344.343.345.345 0 00.343-.343v-1.375a9.284 9.284 0 008.93-8.938h1.374a.342.342 0 00.344-.344.345.345 0 00-.344-.343zm-10.312 8.937v-5.008l2.33 2.329a.346.346 0 00.467-.018.347.347 0 00.018-.467l-2.922-2.922a.344.344 0 00-.484 0l-2.922 2.922a.344.344 0 00.484.485l2.341-2.329v5.008a8.6 8.6 0 01-8.241-8.25h5l-2.33 2.331a.342.342 0 00.486.484l2.921-2.921a.346.346 0 000-.485l-2.922-2.922a.342.342 0 00-.466.018.343.343 0 00-.018.467l2.329 2.341h-5a8.604 8.604 0 018.241-8.242v5l-2.33-2.329a.343.343 0 00-.485.485l2.922 2.922a.344.344 0 00.484 0l2.922-2.922a.346.346 0 00-.018-.467.343.343 0 00-.466-.018l-2.341 2.329v-5a8.606 8.606 0 018.25 8.25h-5.009l2.33-2.339a.343.343 0 00-.486-.485l-2.921 2.922a.346.346 0 000 .485l2.922 2.922a.344.344 0 00.484 0 .346.346 0 000-.485l-2.329-2.341h5.009a8.606 8.606 0 01-8.25 8.25z" stroke="#fff" mask="url(#a)"/><path d="M100 117.339a3.75 3.75 0 01-3.75 3.75h-10v2.5h10a6.259 6.259 0 006.25-6.25v-3.75H100v3.75z" fill="#fff"/><g clip-path="url(#clip0)"><mask id="b" maskUnits="userSpaceOnUse" x="92" y="88.089" width="19" height="21" fill="#000"><path fill="#fff" d="M92 88.089h19v21H92z"/><path d="M109.524 100.181a2.98 2.98 0 00.476-1.592c0-.779-.345-1.503-.936-1.994.131-.314.197-.64.197-.974a2.768 2.768 0 00-1.494-2.447 2.224 2.224 0 00-1.682-2.427c-.425-.986-1.371-1.658-2.368-1.658-.928 0-1.76.544-2.217 1.337-.457-.793-1.289-1.337-2.217-1.337-.997 0-1.943.672-2.368 1.658a2.223 2.223 0 00-1.682 2.427 2.767 2.767 0 00-1.494 2.447c0 .334.066.66.197.974A2.582 2.582 0 0093 98.59c0 .52.16 1.116.476 1.592A2.58 2.58 0 0093 101.67c0 .691.279 1.349.772 1.838-.253 1.54.97 3.098 2.554 3.098l.034-.001c.525.91 1.5 1.485 2.553 1.485 1.097 0 2.078-.661 2.587-1.614.509.953 1.49 1.614 2.587 1.614a2.961 2.961 0 002.553-1.485.375.375 0 00.034.001c1.402 0 2.587-1.241 2.587-2.709 0-.125-.011-.254-.033-.389a2.586 2.586 0 00.772-1.838c0-.532-.167-1.051-.476-1.488zm-8.394-5.474a1.46 1.46 0 00-.739-.2.37.37 0 00-.369.371.37.37 0 00.369.371c.408 0 .739.334.739.743v7.057a2.941 2.941 0 00-2.217-1.008.37.37 0 000 .742c1.223 0 2.217.999 2.217 2.226 0 1.268-1.015 2.338-2.217 2.338a2.223 2.223 0 01-2.007-1.294.37.37 0 00-.377-.213l-.078.01c-1.051.145-2.236-1.051-1.915-2.389a.372.372 0 00-.123-.372 1.85 1.85 0 01-.674-1.42c0-.336.095-.666.271-.954.444.364.995.583 1.577.583a.37.37 0 000-.742c-1.003 0-1.848-.919-1.848-1.967 0-.635.323-1.22.863-1.564a.372.372 0 00.124-.496 1.833 1.833 0 01-.248-.908c0-1.002.813-1.967 1.848-1.967.985 0 1.848.919 1.848 1.967a.37.37 0 10.739 0c0-1.469-1.185-2.71-2.587-2.71-.124 0-.247.01-.369.03v-.03c0-.828.67-1.484 1.478-1.484.395 0 .766.155 1.045.435a.368.368 0 00.523 0 .372.372 0 000-.525 2.199 2.199 0 00-1.226-.625c.326-.486.868-.88 1.506-.88.984 0 1.847.919 1.847 1.966v2.909zm6.283 6.591c.582 0 1.133-.219 1.577-.583.176.288.271.618.271.954 0 .545-.246 1.062-.674 1.42a.372.372 0 00-.123.372 1.8 1.8 0 01.058.435c0 1.152-1.038 2.083-1.973 1.954l-.078-.01a.369.369 0 00-.377.213 2.224 2.224 0 01-2.007 1.294c-1.202 0-2.217-1.07-2.217-2.338 0-1.227.994-2.226 2.217-2.226a.37.37 0 000-.742c-.882 0-1.675.39-2.217 1.008v-7.057c0-.41.331-.743.739-.743a.37.37 0 00.369-.37.37.37 0 00-.369-.372 1.46 1.46 0 00-.739.2v-2.909c0-1.047.863-1.966 1.847-1.966.638 0 1.18.394 1.506.88a2.2 2.2 0 00-1.226.625.373.373 0 000 .525.369.369 0 00.523 0c.279-.28.65-.435 1.045-.435.813 0 1.478.66 1.478 1.485v.029a2.395 2.395 0 00-.369-.03c-1.402 0-2.587 1.241-2.587 2.71a.37.37 0 10.739 0c0-1.048.864-1.967 1.848-1.967 1.034 0 1.848.965 1.848 1.967 0 .311-.084.617-.248.908a.372.372 0 00.124.496c.54.344.863.929.863 1.564 0 1.052-.848 1.967-1.848 1.967a.37.37 0 000 .742z"/></mask><path d="M109.524 100.181a2.98 2.98 0 00.476-1.592c0-.779-.345-1.503-.936-1.994.131-.314.197-.64.197-.974a2.768 2.768 0 00-1.494-2.447 2.224 2.224 0 00-1.682-2.427c-.425-.986-1.371-1.658-2.368-1.658-.928 0-1.76.544-2.217 1.337-.457-.793-1.289-1.337-2.217-1.337-.997 0-1.943.672-2.368 1.658a2.223 2.223 0 00-1.682 2.427 2.767 2.767 0 00-1.494 2.447c0 .334.066.66.197.974A2.582 2.582 0 0093 98.59c0 .52.16 1.116.476 1.592A2.58 2.58 0 0093 101.67c0 .691.279 1.349.772 1.838-.253 1.54.97 3.098 2.554 3.098l.034-.001c.525.91 1.5 1.485 2.553 1.485 1.097 0 2.078-.661 2.587-1.614.509.953 1.49 1.614 2.587 1.614a2.961 2.961 0 002.553-1.485.375.375 0 00.034.001c1.402 0 2.587-1.241 2.587-2.709 0-.125-.011-.254-.033-.389a2.586 2.586 0 00.772-1.838c0-.532-.167-1.051-.476-1.488zm-8.394-5.474a1.46 1.46 0 00-.739-.2.37.37 0 00-.369.371.37.37 0 00.369.371c.408 0 .739.334.739.743v7.057a2.941 2.941 0 00-2.217-1.008.37.37 0 000 .742c1.223 0 2.217.999 2.217 2.226 0 1.268-1.015 2.338-2.217 2.338a2.223 2.223 0 01-2.007-1.294.37.37 0 00-.377-.213l-.078.01c-1.051.145-2.236-1.051-1.915-2.389a.372.372 0 00-.123-.372 1.85 1.85 0 01-.674-1.42c0-.336.095-.666.271-.954.444.364.995.583 1.577.583a.37.37 0 000-.742c-1.003 0-1.848-.919-1.848-1.967 0-.635.323-1.22.863-1.564a.372.372 0 00.124-.496 1.833 1.833 0 01-.248-.908c0-1.002.813-1.967 1.848-1.967.985 0 1.848.919 1.848 1.967a.37.37 0 10.739 0c0-1.469-1.185-2.71-2.587-2.71-.124 0-.247.01-.369.03v-.03c0-.828.67-1.484 1.478-1.484.395 0 .766.155 1.045.435a.368.368 0 00.523 0 .372.372 0 000-.525 2.199 2.199 0 00-1.226-.625c.326-.486.868-.88 1.506-.88.984 0 1.847.919 1.847 1.966v2.909zm6.283 6.591c.582 0 1.133-.219 1.577-.583.176.288.271.618.271.954 0 .545-.246 1.062-.674 1.42a.372.372 0 00-.123.372 1.8 1.8 0 01.058.435c0 1.152-1.038 2.083-1.973 1.954l-.078-.01a.369.369 0 00-.377.213 2.224 2.224 0 01-2.007 1.294c-1.202 0-2.217-1.07-2.217-2.338 0-1.227.994-2.226 2.217-2.226a.37.37 0 000-.742c-.882 0-1.675.39-2.217 1.008v-7.057c0-.41.331-.743.739-.743a.37.37 0 00.369-.37.37.37 0 00-.369-.372 1.46 1.46 0 00-.739.2v-2.909c0-1.047.863-1.966 1.847-1.966.638 0 1.18.394 1.506.88a2.2 2.2 0 00-1.226.625.373.373 0 000 .525.369.369 0 00.523 0c.279-.28.65-.435 1.045-.435.813 0 1.478.66 1.478 1.485v.029a2.395 2.395 0 00-.369-.03c-1.402 0-2.587 1.241-2.587 2.71a.37.37 0 10.739 0c0-1.048.864-1.967 1.848-1.967 1.034 0 1.848.965 1.848 1.967 0 .311-.084.617-.248.908a.372.372 0 00.124.496c.54.344.863.929.863 1.564 0 1.052-.848 1.967-1.848 1.967a.37.37 0 000 .742z" fill="#fff"/><path d="M109.524 100.181a2.98 2.98 0 00.476-1.592c0-.779-.345-1.503-.936-1.994.131-.314.197-.64.197-.974a2.768 2.768 0 00-1.494-2.447 2.224 2.224 0 00-1.682-2.427c-.425-.986-1.371-1.658-2.368-1.658-.928 0-1.76.544-2.217 1.337-.457-.793-1.289-1.337-2.217-1.337-.997 0-1.943.672-2.368 1.658a2.223 2.223 0 00-1.682 2.427 2.767 2.767 0 00-1.494 2.447c0 .334.066.66.197.974A2.582 2.582 0 0093 98.59c0 .52.16 1.116.476 1.592A2.58 2.58 0 0093 101.67c0 .691.279 1.349.772 1.838-.253 1.54.97 3.098 2.554 3.098l.034-.001c.525.91 1.5 1.485 2.553 1.485 1.097 0 2.078-.661 2.587-1.614.509.953 1.49 1.614 2.587 1.614a2.961 2.961 0 002.553-1.485.375.375 0 00.034.001c1.402 0 2.587-1.241 2.587-2.709 0-.125-.011-.254-.033-.389a2.586 2.586 0 00.772-1.838c0-.532-.167-1.051-.476-1.488zm-8.394-5.474a1.46 1.46 0 00-.739-.2.37.37 0 00-.369.371.37.37 0 00.369.371c.408 0 .739.334.739.743v7.057a2.941 2.941 0 00-2.217-1.008.37.37 0 000 .742c1.223 0 2.217.999 2.217 2.226 0 1.268-1.015 2.338-2.217 2.338a2.223 2.223 0 01-2.007-1.294.37.37 0 00-.377-.213l-.078.01c-1.051.145-2.236-1.051-1.915-2.389a.372.372 0 00-.123-.372 1.85 1.85 0 01-.674-1.42c0-.336.095-.666.271-.954.444.364.995.583 1.577.583a.37.37 0 000-.742c-1.003 0-1.848-.919-1.848-1.967 0-.635.323-1.22.863-1.564a.372.372 0 00.124-.496 1.833 1.833 0 01-.248-.908c0-1.002.813-1.967 1.848-1.967.985 0 1.848.919 1.848 1.967a.37.37 0 10.739 0c0-1.469-1.185-2.71-2.587-2.71-.124 0-.247.01-.369.03v-.03c0-.828.67-1.484 1.478-1.484.395 0 .766.155 1.045.435a.368.368 0 00.523 0 .372.372 0 000-.525 2.199 2.199 0 00-1.226-.625c.326-.486.868-.88 1.506-.88.984 0 1.847.919 1.847 1.966v2.909zm6.283 6.591c.582 0 1.133-.219 1.577-.583.176.288.271.618.271.954 0 .545-.246 1.062-.674 1.42a.372.372 0 00-.123.372 1.8 1.8 0 01.058.435c0 1.152-1.038 2.083-1.973 1.954l-.078-.01a.369.369 0 00-.377.213 2.224 2.224 0 01-2.007 1.294c-1.202 0-2.217-1.07-2.217-2.338 0-1.227.994-2.226 2.217-2.226a.37.37 0 000-.742c-.882 0-1.675.39-2.217 1.008v-7.057c0-.41.331-.743.739-.743a.37.37 0 00.369-.37.37.37 0 00-.369-.372 1.46 1.46 0 00-.739.2v-2.909c0-1.047.863-1.966 1.847-1.966.638 0 1.18.394 1.506.88a2.2 2.2 0 00-1.226.625.373.373 0 000 .525.369.369 0 00.523 0c.279-.28.65-.435 1.045-.435.813 0 1.478.66 1.478 1.485v.029a2.395 2.395 0 00-.369-.03c-1.402 0-2.587 1.241-2.587 2.71a.37.37 0 10.739 0c0-1.048.864-1.967 1.848-1.967 1.034 0 1.848.965 1.848 1.967 0 .311-.084.617-.248.908a.372.372 0 00.124.496c.54.344.863.929.863 1.564 0 1.052-.848 1.967-1.848 1.967a.37.37 0 000 .742z" stroke="#fff" mask="url(#b)"/></g><defs><linearGradient id="paint0_linear" x1="20.862" y1="152.243" x2="140.964" y2="53.557" gradientUnits="userSpaceOnUse"><stop stop-color="#0EC0E0"/><stop offset="1" stop-color="#1BD0DB"/></linearGradient><clipPath id="clip0"><path fill="#fff" transform="translate(92 88.09)" d="M0 0h19v22H0z"/></clipPath></defs></svg>