<svg width="165" height="173" fill="none" xmlns="http://www.w3.org/2000/svg"><path d="M29.994 13.822C8.814 40.152 6.91 63.43 2.209 83.185c-2.137 12.731-4.163 35.666 1.282 54.876 9.832 34.682 42.746 34.682 52.15 33.804 9.404-.878 37.616-4.39 74.377-28.536 36.761-24.145 40.607-53.559 29.494-74.631-13.429-25.463-46.333-50.925-72.667-61.9-16.921-7.053-40.608-13.17-56.852 7.024z" fill="url(#paint0_linear)"/><g clip-path="url(#clip0)" fill="#fff"><path d="M115.02 76.025a5.972 5.972 0 00-3.646-1.725c.108-.455.164-.927.164-1.408a5.96 5.96 0 00-1.752-4.243 5.974 5.974 0 00-3.597-1.72 6.006 6.006 0 00-1.571-5.724 6.005 6.005 0 00-5.724-1.572 5.973 5.973 0 00-1.72-3.596 5.96 5.96 0 00-4.244-1.753 5.96 5.96 0 00-4.244 1.753L87.2 57.524a38.036 38.036 0 00-15.137-1.544c-1.415-1.249-3.037-2.35-4.859-3.095-5.23-2.138-7.621.614-8.23 1.509-1.11 1.635-1.2 3.802-.352 5.565a37.546 37.546 0 00-3.794 2.246 1.543 1.543 0 001.727 2.557 34.396 34.396 0 014.013-2.329c2.333 2.673 5.846 7.621 4.95 12.372-.614 3.25-.48 6.388-.33 9.425a4.702 4.702 0 00-3.95 1.344l-18.31 18.311c-3.101-9.803-1.782-20.8 4.27-29.762a1.543 1.543 0 00-2.557-1.727c-10.056 14.894-8.12 34.94 4.606 47.665 7.112 7.112 16.567 11.029 26.625 11.029 10.057 0 19.513-3.917 26.624-11.029 8.786-8.785 12.644-21.229 10.408-33.43l2.117-2.118a6.009 6.009 0 000-8.488zM84.706 60.018l-5.633 5.632a13.4 13.4 0 01-.046-.101c-.25-.557-1.672-3.592-4.184-6.66 3.32-.095 6.657.287 9.863 1.129zM63.419 87.756a1.636 1.636 0 011.166-.479c.443 0 .857.17 1.166.48l19.664 19.663.001.001v.001a1.651 1.651 0 010 2.332l-5.843 5.843L57.575 93.6l5.844-5.844zm-19.31 19.31l11.284-11.284 21.998 21.997-9.34 9.34c-6.246-1.438-11.98-4.596-16.623-9.24a34.424 34.424 0 01-7.32-10.813zm56.204 10.814c-6.529 6.529-15.21 10.124-24.442 10.124-1.381 0-2.75-.082-4.1-.241l15.827-15.827a4.744 4.744 0 00.945-5.346c1.372-1.074 3.054-1.91 4.815-2.786 2.317-1.15 4.712-2.341 6.57-4.198l10.263-10.263a34.486 34.486 0 01-9.878 28.537zm12.525-35.549L97.746 97.424c-1.5 1.5-3.57 2.529-5.76 3.617-1.86.924-3.77 1.874-5.413 3.174L68.36 86.001a238.4 238.4 0 00-.078-1.645c-.153-3.08-.298-5.989.267-8.979 1.299-6.885-4.27-13.58-6.723-16.138-.793-.826-.925-2.192-.3-3.11.754-1.11 2.398-1.251 4.51-.388 6.292 2.571 10.021 10.728 10.177 11.074.571 1.27 1.046 1.796 1.956 2.165.101.041.153.063.214.098a1.543 1.543 0 001.868-.242L90.868 58.22a2.894 2.894 0 012.062-.849c.782 0 1.515.302 2.062.85a2.92 2.92 0 010 4.123 1.543 1.543 0 102.182 2.182l1.138-1.138a2.92 2.92 0 014.124 0 2.92 2.92 0 010 4.124l-1.138 1.138a1.542 1.542 0 102.182 2.182 2.92 2.92 0 014.124 0c.547.547.848 1.28.848 2.061 0 .783-.301 1.515-.848 2.063l-1.071 1.07a1.542 1.542 0 102.182 2.182l.003-.004a2.896 2.896 0 012.058-.844 2.893 2.893 0 012.911 2.91 2.89 2.89 0 01-.849 2.062z"/><path d="M63.315 94.51c.296.268.667.4 1.037.4a1.543 1.543 0 10-1.14-2.58h-.001a1.542 1.542 0 00.104 2.18zM50.337 69.446a1.543 1.543 0 000-3.085h-.001a1.542 1.542 0 100 3.085z"/></g><defs><linearGradient id="paint0_linear" x1="20.862" y1="152.243" x2="140.964" y2="53.557" gradientUnits="userSpaceOnUse"><stop stop-color="#0EC0E0"/><stop offset="1" stop-color="#1BD0DB"/></linearGradient><clipPath id="clip0"><path fill="#fff" transform="translate(38 52.09)" d="M0 0h79v79H0z"/></clipPath></defs></svg>