<svg width="165" height="173" fill="none" xmlns="http://www.w3.org/2000/svg"><path d="M29.994 13.822C8.814 40.152 6.91 63.43 2.209 83.185c-2.137 12.731-4.163 35.666 1.282 54.876 9.832 34.682 42.746 34.682 52.15 33.804 9.404-.878 37.616-4.39 74.377-28.536 36.761-24.145 40.607-53.559 29.494-74.631-13.429-25.463-46.333-50.925-72.667-61.9-16.921-7.053-40.608-13.17-56.852 7.024z" fill="url(#paint0_linear)"/><g clip-path="url(#clip0)" fill="#fff" stroke="#1ADCBE" stroke-width=".7"><path d="M101.087 63.002C94.92 56.835 86.722 53.44 78 53.44s-16.92 3.396-23.087 9.563c0 0 0 0 0 0m46.174 0l-46.422-.247.248.247m46.174 0c6.167 6.168 9.563 14.366 9.563 23.087 0 8.722-3.396 16.92-9.563 23.087-6.167 6.168-14.365 9.563-23.087 9.563s-16.92-3.395-23.087-9.563c-6.167-6.167-9.563-14.365-9.563-23.087 0-8.721 3.396-16.92 9.563-23.087m46.174 0H54.913M78 115.572c7.874 0 15.28-3.067 20.847-8.635 5.569-5.568 8.636-12.973 8.636-20.848 0-7.874-3.067-15.279-8.636-20.847C93.28 59.674 85.876 56.606 78 56.606c-7.874 0-15.28 3.068-20.847 8.636-5.569 5.568-8.636 12.973-8.636 20.847 0 7.875 3.067 15.28 8.636 20.848 5.568 5.568 12.973 8.635 20.847 8.635z"/><path d="M58.89 94.81l2.903-1.269a17.841 17.841 0 0032.413 0l2.903 1.269a21.008 21.008 0 01-38.218 0zm3.233-14.895H58.95c.183-3.924 3.432-7.06 7.4-7.06 3.967 0 7.217 3.136 7.4 7.06h-3.173a4.247 4.247 0 00-4.227-3.892 4.247 4.247 0 00-4.227 3.892zm23.3 0h-3.174c.184-3.924 3.433-7.06 7.4-7.06 3.968 0 7.218 3.136 7.401 7.06h-3.173a4.247 4.247 0 00-4.227-3.892 4.247 4.247 0 00-4.227 3.892z" stroke-linecap="round"/></g><defs><linearGradient id="paint0_linear" x1="20.862" y1="152.243" x2="140.964" y2="53.557" gradientUnits="userSpaceOnUse"><stop stop-color="#1BD0C9"/><stop offset="1" stop-color="#19E2B6"/></linearGradient><clipPath id="clip0"><path fill="#fff" transform="translate(45 53.09)" d="M0 0h66v66H0z"/></clipPath></defs></svg>