<svg width="152" height="79" fill="none" xmlns="http://www.w3.org/2000/svg"><path opacity=".1" d="M14.633 7.136C5.007 18.902 4.141 29.304 2.004 38.132c-.971 5.689-1.892 15.937.583 24.522C7.056 78.15 22.017 78.15 26.291 77.759c4.275-.392 17.098-1.962 33.808-12.751 16.71-10.79 18.458-23.933 13.406-33.35-6.104-11.378-21.06-22.756-33.03-27.66C32.784.846 22.017-1.888 14.633 7.136z" stroke="url(#paint0_linear)" stroke-width=".5"/><path opacity=".2" d="M17 10.262C8.328 20.889 7.55 30.284 5.623 38.258c-.875 5.138-1.704 14.395.525 22.148 4.026 13.998 17.503 13.998 21.354 13.644 3.85-.354 15.402-1.772 30.455-11.517 15.052-9.746 16.627-21.617 12.076-30.122C64.535 22.134 51.062 11.856 40.28 7.427 33.35 4.58 23.65 2.11 17 10.262z" stroke="url(#paint1_linear)" stroke-width=".5"/><path opacity=".3" d="M19.367 13.387c-7.717 9.488-8.41 17.877-10.124 24.996-.779 4.588-1.517 12.853.467 19.776 3.582 12.498 15.576 12.498 19.003 12.182 3.427-.317 13.706-1.582 27.102-10.284 13.395-8.701 14.797-19.3 10.747-26.895-4.893-9.175-16.883-18.351-26.479-22.307-6.166-2.541-14.797-4.746-20.716 2.532z" stroke="url(#paint2_linear)" stroke-width=".5"/><path opacity=".4" d="M21.34 15.991c-6.922 8.54-7.544 16.09-9.08 22.497-.7 4.129-1.361 11.567.418 17.798 3.213 11.248 13.97 11.248 17.044 10.963 3.073-.284 12.293-1.423 24.308-9.255 12.014-7.83 13.271-17.37 9.639-24.205-4.389-8.258-15.143-16.517-23.75-20.076-5.53-2.287-13.27-4.272-18.58 2.278z" stroke="url(#paint3_linear)" stroke-width=".5"/><path opacity=".5" d="M23.312 18.596c-6.126 7.59-6.677 14.301-8.037 19.997-.618 3.67-1.204 10.282.371 15.82 2.844 9.999 12.365 9.999 15.085 9.746 2.72-.253 10.88-1.266 21.514-8.227 10.633-6.96 11.746-15.44 8.531-21.516-3.885-7.34-13.402-14.681-21.02-17.845-4.894-2.033-11.745-3.797-16.444 2.025z" stroke="url(#paint4_linear)" stroke-width=".5"/><path d="M25.284 21.2c-5.33 6.642-5.81 12.513-6.993 17.497-.538 3.211-1.047 8.997.323 13.843 2.474 8.749 10.759 8.749 13.126 8.527 2.366-.221 9.467-1.107 18.72-7.198 9.252-6.091 10.22-13.51 7.423-18.827-3.38-6.423-11.662-12.846-18.29-15.615-4.258-1.778-10.22-3.322-14.309 1.773z" fill="url(#paint5_linear)"/><path d="M42.594 45.503c-1.516 1.607-3.63 2.604-5.967 2.604-4.614 0-8.354-3.885-8.354-8.677 0-4.793 3.74-8.678 8.354-8.678 2.638 0 4.991 1.27 6.522 3.254" stroke="#fff" stroke-width="7"/><path d="M51.207 39.43c0 2.054-1.633 3.719-3.646 3.719-2.014 0-5.652-3.161-5.652-3.72 0-.371 3.638-3.718 5.652-3.718 2.013 0 3.646 1.665 3.646 3.719z" fill="#fff"/><path d="M72.488 48.252c-1.32 0-2.508-.276-3.564-.828a6.34 6.34 0 01-2.466-2.34c-.6-.996-.9-2.124-.9-3.384 0-1.26.3-2.388.9-3.384a6.21 6.21 0 012.466-2.322c1.056-.564 2.244-.846 3.564-.846 1.152 0 2.19.204 3.114.612a5.991 5.991 0 012.304 1.764l-2.268 2.052c-.816-.984-1.806-1.476-2.97-1.476-.684 0-1.296.15-1.836.45-.528.3-.942.726-1.242 1.278-.288.54-.432 1.164-.432 1.872 0 .708.144 1.338.432 1.89.3.54.714.96 1.242 1.26.54.3 1.152.45 1.836.45 1.164 0 2.154-.492 2.97-1.476l2.268 2.052a5.991 5.991 0 01-2.304 1.764c-.924.408-1.962.612-3.114.612zm17.954-3.006V48H80.326V35.4h9.882v2.754h-6.354v2.124h5.598v2.664h-5.598v2.304h6.588zm14.595-9.846V48h-3.51v-9.774h-3.618l-.073 2.052c-.06 1.8-.21 3.264-.45 4.392-.227 1.128-.623 2.004-1.188 2.628-.563.612-1.361.918-2.393.918-.48 0-1.02-.072-1.62-.216l.197-2.916c.156.036.319.054.486.054.469 0 .829-.186 1.08-.558.253-.372.433-.888.54-1.548.109-.672.18-1.542.216-2.61l.18-5.022h10.153zm12.199 10.152h-5.328l-.99 2.448h-3.636l5.562-12.6h3.51l5.58 12.6h-3.708l-.99-2.448zm-1.044-2.628l-1.62-4.032-1.62 4.032h3.24zm19.984-7.524V48h-3.564v-4.914h-4.86V48h-3.564V35.4h3.564v4.734h4.86V35.4h3.564zm8.611 7.776h-1.62V48h-3.546V35.4h3.546v4.896h1.71l3.006-4.896h3.744l-3.942 6.084L151.663 48h-4.014l-2.862-4.824z" fill="url(#paint6_linear)"/><defs><linearGradient id="paint0_linear" x1="61.091" y1="19.82" x2="14.155" y2="75.095" gradientUnits="userSpaceOnUse"><stop stop-color="#67CDC9"/><stop offset="1" stop-color="#6FDEB8"/></linearGradient><linearGradient id="paint1_linear" x1="58.85" y1="21.718" x2="16.438" y2="71.532" gradientUnits="userSpaceOnUse"><stop stop-color="#67CDC9"/><stop offset="1" stop-color="#6FDEB8"/></linearGradient><linearGradient id="paint2_linear" x1="56.61" y1="23.616" x2="18.722" y2="67.969" gradientUnits="userSpaceOnUse"><stop stop-color="#67CDC9"/><stop offset="1" stop-color="#6FDEB8"/></linearGradient><linearGradient id="paint3_linear" x1="54.743" y1="25.197" x2="20.626" y2="64.999" gradientUnits="userSpaceOnUse"><stop stop-color="#67CDC9"/><stop offset="1" stop-color="#6FDEB8"/></linearGradient><linearGradient id="paint4_linear" x1="52.876" y1="26.779" x2="22.53" y2="62.029" gradientUnits="userSpaceOnUse"><stop stop-color="#67CDC9"/><stop offset="1" stop-color="#6FDEB8"/></linearGradient><linearGradient id="paint5_linear" x1="59.264" y1="35.401" x2="18.975" y2="54.306" gradientUnits="userSpaceOnUse"><stop stop-color="#19E2B6"/><stop offset="1" stop-color="#0EC1E2"/></linearGradient><linearGradient id="paint6_linear" x1="108.5" y1="23" x2="108.5" y2="55" gradientUnits="userSpaceOnUse"><stop stop-color="#19E2B8"/><stop offset="1" stop-color="#13D0CF"/></linearGradient></defs></svg>