<svg width="284" height="115" fill="none" xmlns="http://www.w3.org/2000/svg"><path d="M124.976 65.504c-2.64 0-5.016-.552-7.128-1.656-2.088-1.128-3.732-2.688-4.932-4.68-1.2-1.992-1.8-4.248-1.8-6.768 0-2.52.6-4.776 1.8-6.768 1.2-1.992 2.844-3.54 4.932-4.644 2.112-1.128 4.488-1.692 7.128-1.692 2.304 0 4.38.408 6.228 1.224 1.848.816 3.384 1.992 4.608 3.528l-4.536 4.104c-1.632-1.968-3.612-2.952-5.94-2.952-1.368 0-2.592.3-3.672.9-1.056.6-1.884 1.452-2.484 2.556-.576 1.08-.864 2.328-.864 3.744 0 1.416.288 2.676.864 3.78a6.431 6.431 0 002.484 2.52c1.08.6 2.304.9 3.672.9 2.328 0 4.308-.984 5.94-2.952l4.536 4.104c-1.224 1.536-2.76 2.712-4.608 3.528-1.848.816-3.924 1.224-6.228 1.224zm35.908-6.012V65h-20.232V39.8h19.764v5.508h-12.708v4.248h11.196v5.328h-11.196v4.608h13.176zM190.073 39.8V65h-7.02V45.452h-7.236l-.144 4.104c-.12 3.6-.42 6.528-.9 8.784-.456 2.256-1.248 4.008-2.376 5.256-1.128 1.224-2.724 1.836-4.788 1.836-.96 0-2.04-.144-3.24-.432l.396-5.832c.312.072.636.108.972.108.936 0 1.656-.372 2.16-1.116.504-.744.864-1.776 1.08-3.096.216-1.344.36-3.084.432-5.22l.36-10.044h20.304zm24.398 20.304h-10.656L201.835 65h-7.272l11.124-25.2h7.02l11.16 25.2h-7.416l-1.98-4.896zm-2.088-5.256l-3.24-8.064-3.24 8.064h6.48zM252.351 39.8V65h-7.128v-9.828h-9.72V65h-7.128V39.8h7.128v9.468h9.72V39.8h7.128zm17.223 15.552h-3.24V65h-7.092V39.8h7.092v9.792h3.42l6.012-9.792h7.488l-7.884 12.168L283.326 65h-8.028l-5.724-9.648z" fill="url(#paint0_linear)"/><path opacity=".1" d="M22.995-.1C7.465 18.882 6.068 35.664 2.62 49.906c-1.567 9.178-3.053 25.712.94 39.562 7.21 25.003 31.347 25.003 38.243 24.37 6.897-.633 27.585-3.165 54.543-20.572 26.959-17.407 29.779-38.612 21.629-53.804-9.848-18.357-33.977-36.713-53.289-44.626-12.408-5.084-29.78-9.495-41.69 5.064z" stroke="url(#paint1_linear)" stroke-width=".5"/><path opacity=".2" d="M26.814 4.942C12.824 22.087 11.566 37.245 8.46 50.109c-1.413 8.29-2.75 23.224.846 35.733 6.495 22.584 28.238 22.584 34.45 22.012 6.213-.572 24.85-2.859 49.135-18.582 24.284-15.722 26.825-34.875 19.483-48.597C103.503 24.095 81.767 7.515 64.37.368 53.192-4.224 37.544-8.208 26.814 4.942z" stroke="url(#paint2_linear)" stroke-width=".5"/><path opacity=".3" d="M30.633 9.984c-12.45 15.308-13.57 28.842-16.334 40.327-1.257 7.402-2.448 20.736.754 31.905 5.779 20.164 25.129 20.164 30.657 19.653 5.529-.51 22.113-2.552 43.725-16.59 21.611-14.038 23.872-31.139 17.338-43.39C98.879 27.085 79.535 12.28 64.054 5.9c-9.947-4.1-23.872-7.657-33.422 4.084z" stroke="url(#paint3_linear)" stroke-width=".5"/><path opacity=".4" d="M33.815 14.186c-11.167 13.777-12.17 25.957-14.65 36.294-1.127 6.662-2.195 18.663.676 28.715 5.184 18.147 22.538 18.147 27.497 17.688 4.958-.46 19.834-2.298 39.217-14.932s21.411-28.025 15.551-39.051c-7.08-13.324-24.43-26.647-38.315-32.39-8.922-3.69-21.412-6.891-29.976 3.676z" stroke="url(#paint4_linear)" stroke-width=".5"/><path opacity=".5" d="M36.997 18.387C27.114 30.634 26.225 41.461 24.031 50.65c-.997 5.922-1.943 16.589.598 25.524 4.588 16.131 19.948 16.131 24.337 15.723 4.388-.409 17.554-2.042 34.709-13.273 17.155-11.23 18.95-24.91 13.764-34.712-6.267-11.843-21.622-23.686-33.911-28.79-7.897-3.281-18.95-6.127-26.531 3.266z" stroke="url(#paint5_linear)" stroke-width=".5"/><path d="M40.18 22.589c-8.6 10.716-9.374 20.189-11.283 28.229-.868 5.181-1.69 14.515.52 22.333C33.41 87.266 46.776 87.266 50.595 86.91c3.818-.358 15.274-1.787 30.201-11.614 14.927-9.826 16.49-21.797 11.976-30.373C87.318 34.56 73.957 24.197 63.264 19.73c-6.87-2.87-16.49-5.36-23.085 2.859z" fill="url(#paint6_linear)"/><path d="M68.105 61.798C65.66 64.391 62.25 66 58.478 66 51.034 66 45 59.732 45 52s6.034-14 13.478-14c4.256 0 8.052 2.05 10.522 5.25" stroke="#fff" stroke-width="7"/><path d="M82 52c0 3.314-2.634 6-5.882 6C72.868 58 67 52.9 67 52c0-.6 5.869-6 9.118-6C79.366 46 82 48.686 82 52z" fill="#fff"/><defs><linearGradient id="paint0_linear" x1="197" y1="33" x2="197" y2="65" gradientUnits="userSpaceOnUse"><stop stop-color="#19E2B8"/><stop offset="1" stop-color="#13D0CF"/></linearGradient><linearGradient id="paint1_linear" x1="97.947" y1="20.363" x2="22.223" y2="109.539" gradientUnits="userSpaceOnUse"><stop stop-color="#67CDC9"/><stop offset="1" stop-color="#6FDEB8"/></linearGradient><linearGradient id="paint2_linear" x1="94.332" y1="23.425" x2="25.907" y2="103.791" gradientUnits="userSpaceOnUse"><stop stop-color="#67CDC9"/><stop offset="1" stop-color="#6FDEB8"/></linearGradient><linearGradient id="paint3_linear" x1="90.718" y1="26.486" x2="29.592" y2="98.043" gradientUnits="userSpaceOnUse"><stop stop-color="#67CDC9"/><stop offset="1" stop-color="#6FDEB8"/></linearGradient><linearGradient id="paint4_linear" x1="87.706" y1="29.038" x2="32.663" y2="93.251" gradientUnits="userSpaceOnUse"><stop stop-color="#67CDC9"/><stop offset="1" stop-color="#6FDEB8"/></linearGradient><linearGradient id="paint5_linear" x1="84.694" y1="31.589" x2="35.735" y2="88.459" gradientUnits="userSpaceOnUse"><stop stop-color="#67CDC9"/><stop offset="1" stop-color="#6FDEB8"/></linearGradient><linearGradient id="paint6_linear" x1="95" y1="45.5" x2="30" y2="76" gradientUnits="userSpaceOnUse"><stop stop-color="#19E2B6"/><stop offset="1" stop-color="#0EC1E2"/></linearGradient></defs></svg>