<svg width="43" height="55" fill="none" xmlns="http://www.w3.org/2000/svg"><path d="M2.18 45.31a2.336 2.336 0 01-1.288-1.205 2.325 2.325 0 01.64-2.776L14.845 30.41 10.77 17.703a2.348 2.348 0 01.222-1.917 2.316 2.316 0 011.59-1.09l26.776-4.757a2.345 2.345 0 012.527 1.319c.446.964.18 2.106-.64 2.776L27.932 24.952l4.076 12.708a2.35 2.35 0 01-.223 1.917 2.316 2.316 0 01-1.59 1.09L3.42 45.424c-.43.08-.856.033-1.24-.114zm13.845-26.49l3.745 11.678c.291.91-.006 1.91-.746 2.516l-7.638 6.265 15.365-2.732-3.745-11.678c-.291-.91.005-1.91.746-2.516l7.638-6.266-15.365 2.732z" fill="url(#paint0_linear)"/><defs><linearGradient id="paint0_linear" x1="5.225" y1="40.713" x2="35.39" y2="37.375" gradientUnits="userSpaceOnUse"><stop stop-color="#0EC0E0"/><stop offset="1" stop-color="#1BD0DB"/></linearGradient></defs></svg>