<svg width="52" height="37" fill="none" xmlns="http://www.w3.org/2000/svg"><path d="M46.725 34.576a2.337 2.337 0 01-.978 1.468 2.326 2.326 0 01-2.843-.175L29.946 24.53 18.08 30.639c-.6.307-1.3.341-1.927.096a2.316 2.316 0 01-1.337-1.389L5.724 3.716a2.345 2.345 0 01.886-2.71 2.326 2.326 0 012.843.175L22.411 12.52l11.866-6.108a2.348 2.348 0 011.927-.096 2.316 2.316 0 011.337 1.389l9.092 25.63c.15.411.173.84.092 1.242zm-28.406-9.304l10.904-5.613a2.335 2.335 0 012.604.322l7.436 6.505-5.22-14.708-10.904 5.614a2.335 2.335 0 01-2.605-.323L13.1 10.565l5.22 14.707z" fill="url(#paint0_linear)"/><defs><linearGradient id="paint0_linear" x1="41.69" y1="32.328" x2="33.44" y2="3.121" gradientUnits="userSpaceOnUse"><stop stop-color="#0EC0E0"/><stop offset="1" stop-color="#1BD0DB"/></linearGradient></defs></svg>