<svg width="123" height="126" fill="none" xmlns="http://www.w3.org/2000/svg"><path opacity=".1" d="M22.995 10.81C7.465 29.793 6.068 46.574 2.62 60.816c-1.567 9.179-3.053 25.713.94 39.562 7.21 25.003 31.347 25.003 38.243 24.37 6.897-.633 27.585-3.165 54.543-20.572 26.959-17.407 29.779-38.612 21.629-53.804-9.848-18.356-33.977-36.713-53.289-44.626-12.408-5.084-29.78-9.495-41.69 5.064z" stroke="url(#paint0_linear)" stroke-width=".5"/><path opacity=".2" d="M26.814 15.852C12.824 32.998 11.566 48.155 8.46 61.02c-1.413 8.29-2.75 23.224.846 35.733 6.495 22.584 28.238 22.584 34.45 22.012 6.213-.572 24.85-2.859 49.135-18.581 24.284-15.723 26.825-34.876 19.483-48.598-8.871-16.58-30.607-33.16-48.004-40.307-11.178-4.592-26.826-8.576-37.556 4.574z" stroke="url(#paint1_linear)" stroke-width=".5"/><path opacity=".3" d="M30.633 20.894c-12.45 15.308-13.57 28.842-16.334 40.328-1.257 7.402-2.448 20.735.754 31.904 5.779 20.164 25.129 20.164 30.657 19.654 5.529-.511 22.113-2.553 43.725-16.59 21.611-14.039 23.872-31.14 17.338-43.391C98.879 37.995 79.535 23.19 64.054 16.81c-9.947-4.1-23.872-7.657-33.422 4.084z" stroke="url(#paint2_linear)" stroke-width=".5"/><path opacity=".4" d="M33.815 25.096c-11.167 13.777-12.17 25.957-14.65 36.294-1.127 6.662-2.195 18.663.676 28.715 5.184 18.147 22.538 18.147 27.497 17.688 4.958-.46 19.834-2.297 39.217-14.932 19.383-12.634 21.411-28.025 15.551-39.051-7.08-13.323-24.43-26.647-38.315-32.39-8.922-3.69-21.412-6.891-29.976 3.676z" stroke="url(#paint3_linear)" stroke-width=".5"/><path opacity=".5" d="M36.997 29.297C27.114 41.544 26.225 52.371 24.031 61.56c-.997 5.922-1.943 16.589.598 25.524 4.588 16.131 19.948 16.131 24.337 15.723 4.388-.409 17.554-2.042 34.709-13.273 17.155-11.23 18.95-24.91 13.764-34.712-6.267-11.843-21.622-23.686-33.911-28.79-7.897-3.28-18.95-6.126-26.531 3.266z" stroke="url(#paint4_linear)" stroke-width=".5"/><path d="M40.18 33.499c-8.6 10.716-9.374 20.19-11.283 28.23-.868 5.18-1.69 14.514.52 22.332C33.41 98.176 46.776 98.176 50.595 97.82c3.818-.358 15.274-1.787 30.201-11.614 14.927-9.826 16.49-21.797 11.976-30.373C87.318 45.47 73.957 35.107 63.264 30.64c-6.87-2.87-16.49-5.36-23.085 2.859z" fill="url(#paint5_linear)"/><path d="M68.105 72.708c-2.446 2.593-5.856 4.202-9.627 4.202-7.444 0-13.478-6.268-13.478-14s6.034-14 13.478-14c4.256 0 8.052 2.05 10.522 5.25" stroke="#fff" stroke-width="7"/><path d="M82 62.91c0 3.314-2.634 6-5.882 6-3.25 0-9.118-5.1-9.118-6 0-.6 5.869-6 9.118-6 3.248 0 5.882 2.686 5.882 6z" fill="#fff"/><defs><linearGradient id="paint0_linear" x1="97.947" y1="31.273" x2="22.223" y2="120.45" gradientUnits="userSpaceOnUse"><stop stop-color="#67CDC9"/><stop offset="1" stop-color="#6FDEB8"/></linearGradient><linearGradient id="paint1_linear" x1="94.332" y1="34.335" x2="25.907" y2="114.702" gradientUnits="userSpaceOnUse"><stop stop-color="#67CDC9"/><stop offset="1" stop-color="#6FDEB8"/></linearGradient><linearGradient id="paint2_linear" x1="90.718" y1="37.397" x2="29.592" y2="108.953" gradientUnits="userSpaceOnUse"><stop stop-color="#67CDC9"/><stop offset="1" stop-color="#6FDEB8"/></linearGradient><linearGradient id="paint3_linear" x1="87.706" y1="39.948" x2="32.663" y2="104.161" gradientUnits="userSpaceOnUse"><stop stop-color="#67CDC9"/><stop offset="1" stop-color="#6FDEB8"/></linearGradient><linearGradient id="paint4_linear" x1="84.694" y1="42.499" x2="35.735" y2="99.369" gradientUnits="userSpaceOnUse"><stop stop-color="#67CDC9"/><stop offset="1" stop-color="#6FDEB8"/></linearGradient><linearGradient id="paint5_linear" x1="95" y1="56.41" x2="30" y2="86.91" gradientUnits="userSpaceOnUse"><stop stop-color="#19E2B6"/><stop offset="1" stop-color="#0EC1E2"/></linearGradient></defs></svg>