<svg width="55" height="55" fill="none" xmlns="http://www.w3.org/2000/svg"><path d="M54.709 18.706c-.154-1.688-.374-3.196-.66-4.527-.328-1.493-1.039-2.752-2.133-3.775-1.095-1.022-2.37-1.615-3.822-1.78-4.542-.512-11.407-.767-20.594-.767-9.188 0-16.053.255-20.595.767-1.453.165-2.721.758-3.806 1.78-1.085 1.023-1.79 2.282-2.117 3.775-.307 1.33-.537 2.839-.691 4.527-.153 1.688-.24 3.085-.26 4.19C.01 24 0 25.536 0 27.5s.01 3.498.03 4.604c.02 1.104.108 2.501.261 4.19.154 1.687.373 3.197.66 4.526.327 1.496 1.038 2.753 2.133 3.776 1.094 1.024 2.368 1.618 3.821 1.78 4.542.512 11.407.768 20.595.768 9.187 0 16.052-.256 20.594-.768 1.453-.163 2.721-.756 3.806-1.78 1.085-1.023 1.79-2.28 2.118-3.776.307-1.33.537-2.839.69-4.527.154-1.688.241-3.085.261-4.189C54.99 31 55 29.464 55 27.5c0-1.965-.01-3.5-.03-4.604-.02-1.105-.108-2.502-.261-4.19zm-16.344 10.45l-15.714 9.822c-.287.205-.635.307-1.044.307-.307 0-.624-.081-.951-.245-.675-.369-1.013-.94-1.013-1.718V17.678c0-.777.337-1.35 1.013-1.719.695-.368 1.36-.346 1.995.061l15.714 9.822c.614.349.921.901.921 1.658 0 .758-.308 1.31-.92 1.657z" fill="#FEB715"/></svg>