<svg width="53" height="63" fill="none" xmlns="http://www.w3.org/2000/svg"><path d="M22.167 18.318H3.833a.833.833 0 000 1.666H12.5c0 .016.04.016.5.016h.5l.333-.016h8.334a.833.833 0 000-1.666z" fill="#FDBF0F"/><g filter="url(#filter0_d)" fill="#fff"><path d="M37.267 29.256h-.054c-1.03 0-1.897.875-1.897 2v1.56a.563.563 0 01-1.125 0v-2.88c0-1.125-.817-2.04-1.847-2.04-1.035 0-1.852.915-1.852 2.04v3.052a.563.563 0 01-1.126 0v-3.89c0-1.124-.849-2.013-1.878-2.013h-.058c-1.003 0-1.843.843-1.843 1.928v4.38a.563.563 0 01-1.125 0V29.14l-.002-.042.002-.103V19.05c0-1.125-.85-2.04-1.878-2.04-1.03 0-1.878.914-1.88 2.038l-.01 16.49a.563.563 0 01-.998.357l-1.97-2.396a2.997 2.997 0 00-2.115-1.119 2.933 2.933 0 00-2.204.79c-.007.007-.014.015-.022.02l-.385.323 6.826 13.119C20.904 48.703 22.942 50 25.144 50h7.89c3.359 0 6.094-2.955 6.097-6.574l.005-4.512c.005-3.095.006-4.234-.002-7.644-.003-1.122-.84-2.014-1.867-2.014z"/><path d="M17.462 19.248a.563.563 0 00.563-.563 4.539 4.539 0 119.076 0 .563.563 0 001.125 0 5.663 5.663 0 10-11.326 0c0 .31.252.563.562.563z"/></g><defs><filter id="filter0_d" x="0" y="0" width="52.14" height="63" filterUnits="userSpaceOnUse" color-interpolation-filters="sRGB"><feFlood flood-opacity="0" result="BackgroundImageFix"/><feColorMatrix in="SourceAlpha" values="0 0 0 0 0 0 0 0 0 0 0 0 0 0 0 0 0 0 127 0"/><feOffset/><feGaussianBlur stdDeviation="6.5"/><feColorMatrix values="0 0 0 0 0 0 0 0 0 0 0 0 0 0 0 0 0 0 0.5 0"/><feBlend in2="BackgroundImageFix" result="effect1_dropShadow"/><feBlend in="SourceGraphic" in2="effect1_dropShadow" result="shape"/></filter></defs></svg>