<svg width="100" height="105" fill="none" xmlns="http://www.w3.org/2000/svg"><path d="M18.178 8.331C5.342 24.305 4.188 38.427 1.339 50.411c-1.295 7.725-2.523 21.638.777 33.293 5.958 21.04 25.906 21.04 31.606 20.508 5.7-.533 22.797-2.664 45.077-17.312 22.279-14.649 24.61-32.493 17.875-45.277-8.14-15.447-28.08-30.895-44.04-37.553C42.377-.21 28.021-3.92 18.177 8.33z" fill="url(#paint0_linear)"/><path d="M38.65 72a3.94 3.94 0 01-2.713-1.06l-2.308-2.184a.807.807 0 010-1.186.923.923 0 011.255 0l2.308 2.182a2.15 2.15 0 002.916 0l.133-.126a3.925 3.925 0 012.713-1.062c1.025 0 1.989.377 2.713 1.063l.064.06a2.15 2.15 0 002.916 0 3.925 3.925 0 012.713-1.063c1.025 0 1.989.377 2.713 1.063a2.15 2.15 0 002.916 0l2.086-1.973a.923.923 0 011.255 0 .807.807 0 010 1.187l-2.086 1.972c-1.495 1.415-3.93 1.416-5.426 0a2.109 2.109 0 00-1.458-.57 2.11 2.11 0 00-1.457.57c-1.496 1.415-3.93 1.416-5.426 0l-.064-.06a2.109 2.109 0 00-1.458-.57 2.11 2.11 0 00-1.458.57l-.133.126A3.944 3.944 0 0138.65 72zm21.163-15.893h-8.245a.908.908 0 01-.675-.295 5.78 5.78 0 01-1.512-3.87c0-3.29 2.83-5.967 6.31-5.967 3.479 0 6.309 2.677 6.309 5.967 0 1.416-.537 2.79-1.512 3.87a.907.907 0 01-.675.295zM52 54.428h7.382a4.128 4.128 0 00.843-2.486c0-2.365-2.034-4.289-4.534-4.289s-4.535 1.924-4.535 4.29c0 .891.297 1.76.844 2.485zm-9.568 1.679h-8.245a.909.909 0 01-.675-.295A5.778 5.778 0 0132 51.942c0-3.29 2.83-5.967 6.31-5.967 3.479 0 6.31 2.677 6.31 5.967 0 1.416-.538 2.79-1.513 3.87a.908.908 0 01-.675.295zm-7.814-1.679h7.383a4.128 4.128 0 00.843-2.486c0-2.365-2.034-4.289-4.534-4.289s-4.535 1.924-4.535 4.29c0 .891.297 1.76.843 2.485zm21.073-1.563c-.49 0-.888-.376-.888-.84v-.083c0-.464.398-.84.888-.84s.887.376.887.84v.084c0 .463-.397.839-.887.839zm-17.381 0c-.49 0-.888-.376-.888-.84v-.083c0-.464.398-.84.888-.84s.887.376.887.84v.084c0 .463-.397.839-.887.839zm20.524-10.733a.923.923 0 01-.46-.122l-6.313-3.633a.814.814 0 01-.296-1.154c.255-.396.8-.521 1.22-.28l6.312 3.633a.814.814 0 01.296 1.153.9.9 0 01-.759.403zm-23.578-.52a.901.901 0 01-.734-.368.811.811 0 01.234-1.166l6.109-3.933a.92.92 0 011.233.222.812.812 0 01-.235 1.166l-6.108 3.933a.92.92 0 01-.5.145z" fill="#fff"/><defs><linearGradient id="paint0_linear" x1="12.644" y1="92.308" x2="85.492" y2="32.51" gradientUnits="userSpaceOnUse"><stop stop-color="#0E3CE0"/><stop offset="1" stop-color="#1B7FDB"/></linearGradient></defs></svg>