<svg width="100" height="105" fill="none" xmlns="http://www.w3.org/2000/svg"><path d="M18.178 8.331C5.342 24.305 4.188 38.427 1.339 50.411c-1.295 7.725-2.523 21.638.777 33.293 5.958 21.04 25.906 21.04 31.606 20.508 5.7-.533 22.797-2.664 45.077-17.312 22.279-14.649 24.61-32.493 17.875-45.277-8.14-15.447-28.08-30.895-44.04-37.553C42.377-.21 28.021-3.92 18.177 8.33z" fill="url(#paint0_linear)"/><path d="M55.206 78h-18.97a.984.984 0 01-.99-.98 10.225 10.225 0 011.43-5.223 10.502 10.502 0 019.044-5.141 10.502 10.502 0 019.09 5.218 10.22 10.22 0 011.385 5.147c0 .54-.442.979-.989.979zm-17.924-1.958H54.16a8.276 8.276 0 00-.817-2.734H38.099a8.273 8.273 0 00-.817 2.734zm2.173-4.693h12.532a8.516 8.516 0 00-6.267-2.734 8.515 8.515 0 00-6.265 2.734zM26.7 70.321c-2.04 0-3.701-1.643-3.701-3.662 0-.63.167-1.253.483-1.803l2.321-4.943a.99.99 0 01.897-.566.99.99 0 01.898.566l2.321 4.943c.316.55.482 1.173.482 1.803 0 2.019-1.66 3.662-3.7 3.662zm0-7.672l-1.44 3.071a.98.98 0 01-.044.082 1.662 1.662 0 00-.236.857c0 .94.773 1.705 1.722 1.705.95 0 1.723-.765 1.723-1.705 0-.303-.08-.592-.236-.857a.951.951 0 01-.044-.082l-1.443-3.072zm28.264-2.52h-.027c-3.88-.014-7.023-3.15-7.008-6.988a6.882 6.882 0 012.08-4.914 7.026 7.026 0 014.954-2.02h.027a7.026 7.026 0 014.967 2.057A6.878 6.878 0 0162 53.194c-.015 3.829-3.17 6.935-7.035 6.935zm0-11.964c-2.78 0-5.046 2.231-5.056 4.984-.011 2.759 2.248 5.011 5.037 5.022h.019c2.78 0 5.046-2.232 5.056-4.985a4.943 4.943 0 00-1.468-3.543 5.047 5.047 0 00-3.57-1.478h-.019zM35.927 60.129h-.026c-3.88-.014-7.023-3.15-7.009-6.988a6.882 6.882 0 012.08-4.914 7.027 7.027 0 014.954-2.02h.028a7.026 7.026 0 014.967 2.057 6.88 6.88 0 012.041 4.93c-.015 3.83-3.168 6.935-7.035 6.935zm0-11.964a5.049 5.049 0 00-3.561 1.452 4.945 4.945 0 00-1.495 3.532c-.01 2.759 2.25 5.011 5.037 5.022 2.805.016 5.065-2.226 5.075-4.985a4.943 4.943 0 00-1.467-3.543 5.048 5.048 0 00-3.57-1.478h-.02zm19.036 6.08h-.004a.984.984 0 01-.985-.983v-.098a.985.985 0 01.99-.975h.003a.984.984 0 01.986.983v.098a.985.985 0 01-.99.975zm-19.036 0h-.004a.984.984 0 01-.986-.983v-.098a.984.984 0 01.99-.975h.004a.984.984 0 01.986.983v.098a.985.985 0 01-.99.975zM59.14 43.38a1 1 0 01-.294-.045l-7.868-2.422a.977.977 0 01-.65-1.226.991.991 0 011.238-.643l7.868 2.422a.977.977 0 01-.294 1.914zm-27.029-.122a.978.978 0 01-.264-1.923l7.94-2.178a.991.991 0 011.218.682.978.978 0 01-.69 1.205l-7.94 2.178a.998.998 0 01-.264.036z" fill="#fff"/><defs><linearGradient id="paint0_linear" x1="12.644" y1="92.308" x2="85.492" y2="32.51" gradientUnits="userSpaceOnUse"><stop stop-color="#FF992D"/><stop offset="1" stop-color="#FEC200"/></linearGradient></defs></svg>