<svg width="100" height="105" fill="none" xmlns="http://www.w3.org/2000/svg"><path d="M18.178 8.331C5.342 24.305 4.188 38.427 1.339 50.411c-1.295 7.725-2.523 21.638.777 33.293 5.958 21.04 25.906 21.04 31.606 20.508 5.7-.533 22.797-2.664 45.077-17.312 22.279-14.649 24.61-32.493 17.875-45.277-8.14-15.447-28.08-30.895-44.04-37.553C42.377-.21 28.021-3.92 18.177 8.33z" fill="url(#paint0_linear)"/><path d="M51.352 48.957h0l9.865-5.865-9.864 5.865zm0 0c-.47.28-.66.884-.442 1.397 1.084 2.553 3.515 4.203 6.195 4.203 3.737 0 6.774-3.162 6.773-7.045 0-1.48-.441-2.9-1.276-4.108l-.042.029m-11.208 5.524l11.208-5.524m0 0l.041-.029m-.04.029l.04-.029m-19.683 6.95a1.12 1.12 0 00-.442-1.397h0l-9.865-5.865a1.034 1.034 0 00-1.384.312h0a7.185 7.185 0 00-1.277 4.107c0 3.884 3.036 7.046 6.773 7.046 2.68 0 5.111-1.65 6.195-4.203zm0 0l-.046-.02m.046.02s0 0 0 0l-.046-.02m0 0A1.07 1.07 0 0042.45 49L30 47.51c0 3.858 3.016 6.996 6.723 6.996 2.659 0 5.072-1.637 6.149-4.173zm-10.567-11.94h0a1.033 1.033 0 011.481-.227l-1.481.228zm0 0a1.126 1.126 0 00.218 1.536s0 0 0 0l9.316 7.197c.189.147.41.217.63.217.324 0 .643-.153.851-.444h0a1.126 1.126 0 00-.218-1.536l-9.316-7.197-1.481.228zm30.297 5.01a1.033 1.033 0 00-1.385-.312l1.385.312zM31.196 69.662h0c.134.113 2.876 2.388 6.857 2.388.591 0 1.21-.05 1.85-.165 3.385-.607 4.946-1.933 6.32-3.1.694-.59 1.365-1.16 2.28-1.644.913-.484 2.07-.882 3.736-1.123h0c4.775-.692 7.197 2.098 8.003 3.299L60 69.48c-.491.33-.63 1.01-.315 1.518h0c.316.509.972.657 1.464.327l2.419-1.626c.49-.33.63-1.008.314-1.517h0a1.034 1.034 0 00-1.464-.327l-.408.275c-1.066-1.569-4.182-5.137-10.061-4.288-1.956.283-3.354.78-4.448 1.364-1.093.583-1.88 1.253-2.616 1.878h-.001l.032.039-.032-.038c-.647.55-1.272 1.08-2.09 1.538-.817.457-1.83.842-3.25 1.097l.01.049-.01-.05c-1.992.358-3.739-.077-4.99-.604a9.86 9.86 0 01-1.476-.773 7.572 7.572 0 01-.506-.354l-.028-.022-.008-.006-.002-.002h0a1.032 1.032 0 00-1.49.16h0c-.367.47-.3 1.161.153 1.544zM51.99 47.127h0l9.316-7.197a1.126 1.126 0 00.218-1.535 1.032 1.032 0 00-1.481-.228s0 0 0 0l-9.316 7.197a1.126 1.126 0 00-.218 1.536 1.028 1.028 0 001.481.227zm5.115 5.233c-1.52 0-2.927-.775-3.79-2.037l2.756-1.639c.1.496.524.87 1.034.87.587 0 1.058-.493 1.058-1.098v-.105a1.12 1.12 0 00-.28-.745l3.475-2.065c.266.617.405 1.285.405 1.971 0 2.675-2.091 4.848-4.658 4.848zm-25.04-4.848c0-.686.139-1.354.405-1.971l3.475 2.065c-.174.196-.28.457-.28.744v.105c0 .605.472 1.099 1.058 1.099.51 0 .934-.374 1.035-.87l2.756 1.64c-.864 1.261-2.27 2.036-3.792 2.036-2.566 0-4.657-2.173-4.657-4.848z" fill="#fff" stroke="#fff" stroke-width=".1"/><defs><linearGradient id="paint0_linear" x1="12.644" y1="92.308" x2="85.492" y2="32.51" gradientUnits="userSpaceOnUse"><stop stop-color="#0EC0E0"/><stop offset="1" stop-color="#1BD0DB"/></linearGradient></defs></svg>