<svg width="100" height="105" fill="none" xmlns="http://www.w3.org/2000/svg"><path d="M18.178 8.331C5.342 24.305 4.188 38.427 1.339 50.411c-1.295 7.725-2.523 21.638.777 33.293 5.958 21.04 25.906 21.04 31.606 20.508 5.7-.533 22.797-2.664 45.077-17.312 22.279-14.649 24.61-32.493 17.875-45.277-8.14-15.447-28.08-30.895-44.04-37.553C42.377-.21 28.021-3.92 18.177 8.33z" fill="url(#paint0_linear)"/><path d="M51.958 74h-10.92a1.051 1.051 0 01-1.042-1.06c0-.586.466-1.06 1.042-1.06h10.92A1.05 1.05 0 0153 72.94c0 .585-.466 1.06-1.042 1.06zm4.694-20.08c-3.5 0-6.348-2.898-6.348-6.46S53.152 41 56.652 41 63 43.898 63 47.46c0 3.563-2.848 6.46-6.348 6.46zm-2.865-3.248a4.207 4.207 0 002.865 1.128 4.209 4.209 0 002.865-1.128h-5.73zm3.25-2.12h3.742a4.4 4.4 0 00.074-1.839h-3.461c.186.192.302.456.302.747v.106c0 .447-.272.83-.656.985zm-4.513 0h3.742a1.06 1.06 0 01-.656-.986v-.106c0-.291.115-.555.302-.747h-3.461a4.409 4.409 0 00.073 1.838zm.93-3.96h6.396a4.224 4.224 0 00-3.198-1.472c-1.273 0-2.417.57-3.199 1.473zm-17.106 9.329c-3.5 0-6.348-2.898-6.348-6.46C30 43.898 32.848 41 36.348 41s6.348 2.898 6.348 6.46c0 3.563-2.848 6.46-6.348 6.46zm-2.865-3.249a4.207 4.207 0 002.865 1.128 4.207 4.207 0 002.864-1.128h-5.729zm3.251-2.12h3.742a4.4 4.4 0 00.074-1.839h-3.462c.186.192.302.456.302.747v.106c0 .447-.272.83-.656.985zm-4.514 0h3.742a1.06 1.06 0 01-.656-.986v-.106c0-.291.116-.555.302-.747h-3.46a4.409 4.409 0 00.072 1.838zm.93-3.96h6.397a4.224 4.224 0 00-3.199-1.472c-1.272 0-2.416.57-3.198 1.473z" fill="#fff"/><defs><linearGradient id="paint0_linear" x1="12.644" y1="92.308" x2="85.492" y2="32.51" gradientUnits="userSpaceOnUse"><stop stop-color="#0EC0E0"/><stop offset="1" stop-color="#1BD0DB"/></linearGradient></defs></svg>