<svg width="100" height="105" fill="none" xmlns="http://www.w3.org/2000/svg"><path d="M18.178 8.331C5.342 24.305 4.188 38.427 1.339 50.411c-1.295 7.725-2.523 21.638.777 33.293 5.958 21.04 25.906 21.04 31.606 20.508 5.7-.533 22.797-2.664 45.077-17.312 22.279-14.649 24.61-32.493 17.875-45.277-8.14-15.447-28.08-30.895-44.04-37.553C42.377-.21 28.021-3.92 18.177 8.33z" fill="url(#paint0_linear)"/><mask id="a" maskUnits="userSpaceOnUse" x="21" y="20" width="46" height="55"><path d="M40.431 62.462C39.93 60.456 27.268 55.776 21 53.686l8.149-21.938L48.579 20l18.178 18.643v13.163L57.982 58.7l-15.67 1.88v5.641h1.88l5.641 1.254 3.135 4.388-.627 1.88-2.508.627-1.253-1.253-1.88-1.881-.628-.627h-1.88l-2.507 2.508c-.836.835-2.633 2.005-3.134 0-.502-2.006-.21-3.343 0-3.761.835-1.463 2.382-4.89 1.88-6.895z" fill="#C4C4C4"/></mask><g mask="url(#a)"><path d="M45.63 84.4a.937.937 0 01-.924-.949v-1.546c0-.524.414-.949.925-.949.51 0 .924.425.924.949v1.546a.937.937 0 01-.924.95zm-9.219-1.898a.937.937 0 01-.924-.949v-1.546c0-.524.413-.949.924-.949.511 0 .925.425.925.949v1.546a.937.937 0 01-.925.95zm6.26-3.416a.937.937 0 01-.925-.95v-1.545c0-.525.414-.95.925-.95.511 0 .925.425.925.95v1.546a.937.937 0 01-.925.949zm7.214-.774a.937.937 0 01-.925-.949v-1.546c0-.524.414-.949.925-.949.51 0 .925.425.925.95v1.545a.937.937 0 01-.925.95zm10.246-.627a.937.937 0 01-.925-.949V75.19c0-.524.414-.95.925-.95.511 0 .925.426.925.95v1.546a.937.937 0 01-.925.949zm-5.16-2.06a.937.937 0 01-.925-.95V73.13c0-.524.414-.95.925-.95.511 0 .925.425.925.95v1.546a.937.937 0 01-.925.949zm-24.21-.218a.937.937 0 01-.925-.949v-1.546c0-.524.414-.949.925-.949.51 0 .925.425.925.95v1.545a.937.937 0 01-.925.95zm6.269-.541a.937.937 0 01-.925-.95v-1.545c0-.525.414-.95.925-.95.51 0 .925.425.925.95v1.546a.937.937 0 01-.925.949zm8.39-.246a.937.937 0 01-.924-.949v-1.546c0-.524.414-.949.924-.949.511 0 .925.425.925.95v1.545a.937.937 0 01-.925.95zm5.53-1.532a.922.922 0 01-.824-.515c-.062-.121-1.428-2.712-4.865-2.712-3.486 0-4.85 2.68-4.864 2.707a.913.913 0 01-1.243.418.96.96 0 01-.407-1.276c.076-.152 1.904-3.746 6.514-3.746s6.437 3.594 6.512 3.746a.96.96 0 01-.406 1.276.9.9 0 01-.417.102zm12.39-3.372a.937.937 0 01-.924-.949v-1.546c0-.524.414-.949.925-.949.51 0 .924.425.924.95v1.545a.937.937 0 01-.924.95zm-5.225-.365a.937.937 0 01-.924-.95v-1.546c0-.524.414-.949.924-.949.511 0 .925.425.925.95v1.546a.937.937 0 01-.925.948zm-25.34-.76a.937.937 0 01-.924-.949v-1.546c0-.524.414-.949.925-.949.51 0 .925.425.925.95v1.545a.937.937 0 01-.925.95zm5.18-.773a.937.937 0 01-.925-.949v-1.546c0-.524.414-.949.925-.949.51 0 .925.425.925.95v1.545a.937.937 0 01-.925.95zm-10.774 0a.937.937 0 01-.925-.949v-1.546c0-.524.414-.949.925-.949.51 0 .924.425.924.95v1.545a.937.937 0 01-.924.95zm24.646-.38a.937.937 0 01-.925-.948v-1.546c0-.525.414-.95.925-.95.51 0 .925.425.925.95v1.546a.937.937 0 01-.925.949zm-7.399-1.77a.937.937 0 01-.924-.95v-1.546c0-.524.413-.948.924-.948.511 0 .925.424.925.949v1.546a.937.937 0 01-.925.949zm16.554-1.547a.937.937 0 01-.924-.949v-1.546c0-.524.413-.949.924-.949.511 0 .925.425.925.949v1.546a.937.937 0 01-.925.95zm-31.073-.76a.937.937 0 01-.925-.948v-1.546c0-.524.414-.95.925-.95.51 0 .925.425.925.95v1.546a.937.937 0 01-.925.949zm37.177-.786a.937.937 0 01-.925-.949V60.08c0-.524.414-.95.925-.95.511 0 .925.426.925.95v1.546a.937.937 0 01-.925.949zm-43.28-.76a.937.937 0 01-.926-.948V59.32c0-.525.414-.95.925-.95.511 0 .925.425.925.95v1.546a.937.937 0 01-.925.949zm31.165-4.661c-3.496 0-6.363-3.266-6.555-7.367a6.84 6.84 0 01.908-3.987c1.148-1.971 3.25-3.294 5.647-3.294 3.626 0 6.576 3.027 6.576 6.747 0 .18-.008.358-.02.534-.193 4.1-3.06 7.367-6.556 7.367zm-4.709-7.49c.204 2.482 2.238 4.438 4.71 4.438 2.47 0 4.505-1.956 4.708-4.438.005-.105.007-.21.007-.316 0-.047.003-.094.01-.14a4.925 4.925 0 00-.414-1.94h-8.624a4.918 4.918 0 00-.414 1.94c.007.046.01.093.01.14 0 .106.003.211.007.316zm1.882-4.294h5.655a4.622 4.622 0 00-5.655 0zM36.41 57.154c-3.498 0-6.365-3.27-6.555-7.373a6.842 6.842 0 01.91-3.984c1.149-1.97 3.25-3.291 5.645-3.291 3.626 0 6.576 3.026 6.576 6.747 0 .178-.007.354-.02.528-.19 4.104-3.058 7.373-6.556 7.373zm-4.71-7.495c.202 2.485 2.237 4.444 4.71 4.444s4.508-1.96 4.71-4.444a7.11 7.11 0 00.006-.31.92.92 0 01.01-.139 4.925 4.925 0 00-.415-1.942H32.1a4.925 4.925 0 00-.414 1.942.94.94 0 01.01.139c0 .104.003.207.007.31zm1.883-4.289h5.655a4.623 4.623 0 00-5.655 0zm21.387 4.927a.937.937 0 01-.925-.949v-.095c0-.524.414-.949.925-.949.511 0 .925.425.925.95v.094a.937.937 0 01-.925.95zm-18.56 0a.937.937 0 01-.924-.949v-.095c0-.524.413-.949.924-.949.511 0 .925.425.925.95v.094a.937.937 0 01-.925.95zm-3.02-11.754a.914.914 0 01-.726-.36.966.966 0 01.152-1.334l6.044-4.897a.91.91 0 011.3.156.966.966 0 01-.154 1.333l-6.044 4.898a.905.905 0 01-.572.204zm24.422-.395a.904.904 0 01-.48-.138l-6.578-4.108a.963.963 0 01-.309-1.304.912.912 0 011.271-.318l6.578 4.109a.963.963 0 01.31 1.304.919.919 0 01-.791.456z" fill="#fff"/></g><defs><linearGradient id="paint0_linear" x1="12.644" y1="92.308" x2="85.492" y2="32.51" gradientUnits="userSpaceOnUse"><stop stop-color="#9586EF"/><stop offset="1" stop-color="#59A7F2"/></linearGradient></defs></svg>