<svg width="100" height="105" fill="none" xmlns="http://www.w3.org/2000/svg"><path d="M18.178 8.331C5.342 24.305 4.188 38.427 1.339 50.411c-1.295 7.725-2.523 21.638.777 33.293 5.958 21.04 25.906 21.04 31.606 20.508 5.7-.533 22.797-2.664 45.077-17.312 22.279-14.649 24.61-32.493 17.875-45.277-8.14-15.447-28.08-30.895-44.04-37.553C42.377-.21 28.021-3.92 18.177 8.33z" fill="url(#paint0_linear)"/><path d="M56.55 49.454h0c-3.062-.43-4.834.367-4.877.387h-.001l-.003.002h0c-.587.277-1.312.057-1.614-.516h0a1.143 1.143 0 01.522-1.565c.128-.064 2.43-1.161 6.32-.617 0 0 0 0 0 0l-.346 2.309zm0 0c3.037.425 4.537 1.811 4.575 1.847.237.235.553.352.866.352.3 0 .6-.107.836-.323h0m-6.276-1.876l6.276 1.876m0 0c.484-.448.5-1.19.032-1.655l-.032 1.655zm-22.405-3.568c-.122-.06-2.424-1.163-6.321-.617-3.922.55-5.862 2.43-5.961 2.53a1.134 1.134 0 00.029 1.646h0c.235.22.54.328.84.328.31 0 .623-.114.86-.343l.001-.001s0 0 0 0c.03-.029 1.53-1.424 4.579-1.851 3.058-.428 4.83.365 4.872.384 0 0 0 0 0 0 .588.29 1.315.071 1.623-.501.31-.578.07-1.283-.522-1.575zm0 0l-.09.179m.09-.18s0 0 0 0l-.09.18m0 0c-.094-.047-2.356-1.137-6.203-.597l6.204.597zm14.39 22.004h.002c.223.172.49.255.753.255.35 0 .7-.146.94-.432h0a1.139 1.139 0 00-.184-1.645h0c-.206-.159-5.069-3.855-10.881-3.855-5.828 0-10.479 3.712-10.677 3.872h0a1.138 1.138 0 00-.143 1.65 1.24 1.24 0 001.698.137l-.126-.155.125.156c.014-.012 1.058-.846 2.72-1.676 1.664-.831 3.934-1.652 6.403-1.652 2.467 0 4.798.825 6.525 1.66.862.418 1.57.836 2.065 1.152a15.644 15.644 0 01.727.492l.04.03.014.01zm2.83-26.652h0c.202.124.427.183.65.183a1.22 1.22 0 001.016-.534 1.142 1.142 0 00-.366-1.616l-7.074-4.344h0a1.237 1.237 0 00-1.665.351h0a1.142 1.142 0 00.366 1.617l7.074 4.343zm-26.472-.35h0c.233.347.623.533 1.017.533.222 0 .447-.059.648-.182h0l7.074-4.344c.563-.345.733-1.07.367-1.616h0a1.237 1.237 0 00-1.666-.351h0l-7.074 4.343a1.142 1.142 0 00-.366 1.617z" fill="#fff" stroke="#fff" stroke-width=".4"/><defs><linearGradient id="paint0_linear" x1="12.644" y1="92.308" x2="85.492" y2="32.51" gradientUnits="userSpaceOnUse"><stop stop-color="#1BD0C9"/><stop offset="1" stop-color="#19E2B6"/></linearGradient></defs></svg>