<svg width="100" height="105" fill="none" xmlns="http://www.w3.org/2000/svg"><path d="M18.178 8.331C5.342 24.305 4.188 38.427 1.339 50.411c-1.295 7.725-2.523 21.638.777 33.293 5.958 21.04 25.906 21.04 31.606 20.508 5.7-.533 22.797-2.664 45.077-17.312 22.279-14.649 24.61-32.493 17.875-45.277-8.14-15.447-28.08-30.895-44.04-37.553C42.377-.21 28.021-3.92 18.177 8.33z" fill="url(#paint0_linear)"/><path d="M61.688 60.585h0c-.25-.618.05-1.321.668-1.57h0c.895-.362 1.5-1.025 1.886-1.608a5.309 5.309 0 00.511-.99l.031-.087a1.213 1.213 0 011.508-.799h0c.636.193.998.86.807 1.497l-5.411 3.557zm0 0a1.21 1.21 0 001.574.667h0m-1.574-.667l1.574.666m0 0c2.894-1.167 3.799-4.095 3.837-4.223l-3.837 4.224zm-.9-21.038l.141.048a1.21 1.21 0 01-1.532.757l1.39-.805zm0 0l.141.048a1.205 1.205 0 00-.758-1.53l-8.355-2.817s0 0 0 0a1.209 1.209 0 00-1.532.756 1.205 1.205 0 00.758 1.53l8.355 2.817 1.39-.804zM29.737 61.251h0a1.209 1.209 0 001.574-.666h0a1.206 1.206 0 00-.668-1.57h0c-.895-.362-1.5-1.025-1.885-1.608a5.321 5.321 0 01-.512-.99l-.031-.087a1.21 1.21 0 00-1.502-.804h0c-.64.19-1.004.863-.813 1.502h0c.038.127.943 3.056 3.837 4.223zm1.375-20.99h0a1.21 1.21 0 001.533.756s0 0 0 0L41 38.2a1.206 1.206 0 10-.775-2.286h0l-8.355 2.817h0a1.206 1.206 0 00-.758 1.53zm17.94 34.535a1.207 1.207 0 001.71 0 1.204 1.204 0 000-1.706 5.397 5.397 0 00-7.611 0 1.204 1.204 0 000 1.707 1.21 1.21 0 001.709 0 2.973 2.973 0 014.192 0zM28.756 52.164c0 4.225 3.445 7.662 7.68 7.662 4.235 0 7.68-3.437 7.68-7.662s-3.445-7.662-7.68-7.662c-4.235 0-7.68 3.437-7.68 7.662zm2.418 0c0-2.894 2.36-5.249 5.262-5.249 2.901 0 5.262 2.355 5.262 5.249 0 2.894-2.36 5.249-5.262 5.249-2.902 0-5.262-2.355-5.262-5.249zm18.686 0c0 3.97 3.237 7.198 7.216 7.198 3.978 0 7.215-3.228 7.215-7.198s-3.237-7.198-7.215-7.198c-3.979 0-7.216 3.229-7.216 7.198zm2.419 0c0-2.638 2.151-4.785 4.797-4.785 2.645 0 4.797 2.147 4.797 4.785 0 2.638-2.152 4.785-4.797 4.785-2.646 0-4.797-2.147-4.797-4.785zm6.13.106c0 .666.541 1.206 1.209 1.206.667 0 1.209-.54 1.209-1.206v-.106c0-.667-.542-1.207-1.21-1.207-.667 0-1.209.54-1.209 1.207v.106zm-20.64 0a1.209 1.209 0 002.419 0v-.106c0-.667-.542-1.207-1.21-1.207-.668 0-1.21.54-1.21 1.207v.106z" fill="#fff" stroke="#fff" stroke-width=".3"/><defs><linearGradient id="paint0_linear" x1="12.644" y1="92.308" x2="85.492" y2="32.51" gradientUnits="userSpaceOnUse"><stop stop-color="#1BD0C9"/><stop offset="1" stop-color="#19E2B6"/></linearGradient></defs></svg>