<svg width="260" height="201" fill="none" xmlns="http://www.w3.org/2000/svg"><path d="M255.448 183.25l-63.74-8.913 4.152-29.428 63.74 8.914-12.211 13.309 8.059 16.118zm-251.296 0l63.74-8.913-4.152-29.428L0 153.823l12.21 13.309-8.058 16.118z" fill="#FFBA0A"/><path d="M218.083 105.467l6.472 16.973c2.32 5.984.122 12.7-5.251 16.241l-15.141 9.89c-2.808 1.832-4.884 4.64-5.739 7.815l-4.762 17.462c-1.71 6.227-7.449 10.379-13.798 10.012l-18.072-.854c-3.297-.123-6.594.854-9.158 3.052l-14.287 11.356a13.597 13.597 0 01-17.095 0l-14.164-11.356a13.835 13.835 0 00-9.158-3.052l-18.072.976c-6.35.367-12.089-3.907-13.798-10.012l-4.762-17.462c-.855-3.174-2.93-5.983-5.74-7.815l-15.14-9.89c-5.373-3.541-7.571-10.257-5.251-16.241l6.35-17.095c1.22-3.174 1.22-6.593 0-9.646l-6.472-16.973c-2.198-5.983 0-12.7 5.372-16.24l15.142-9.89c2.808-1.833 4.884-4.64 5.739-7.816l4.64-17.583c1.71-6.228 7.448-10.38 13.798-10.013l18.072.855c3.297.122 6.593-.855 9.158-3.053L121.13 3.752a13.598 13.598 0 0117.095 0l14.165 11.356a13.841 13.841 0 009.158 3.053l18.072-.855c6.349-.366 12.088 3.907 13.798 10.013l4.762 17.461c.855 3.175 2.93 5.983 5.739 7.815l15.141 9.89c5.373 3.542 7.571 10.258 5.251 16.241l-6.472 16.973c-.977 3.175-.977 6.716.244 9.768z" stroke="url(#paint0_linear)"/><path d="M135.173 11.81l16.972-6.47c5.984-2.321 12.7-.123 16.241 5.25l9.89 15.141c1.832 2.808 4.64 4.884 7.815 5.739l17.462 4.762c6.227 1.71 10.379 7.449 10.012 13.798l-.854 18.072c-.122 3.297.854 6.594 3.052 9.158l11.356 14.165a13.598 13.598 0 010 17.095l-11.356 14.164a13.84 13.84 0 00-3.052 9.158l.854 18.072c.367 6.35-3.907 12.089-10.012 13.798l-17.462 4.762c-3.175.855-5.983 2.931-7.815 5.739l-9.89 15.142c-3.541 5.372-10.257 7.57-16.241 5.25l-16.972-6.471c-3.175-1.221-6.594-1.221-9.647 0l-16.973 6.471c-5.983 2.32-12.699.122-16.24-5.25l-9.89-15.142c-1.832-2.808-4.64-4.884-7.816-5.739l-17.461-4.762c-6.227-1.709-10.38-7.448-10.013-13.798l.855-18.072c.122-3.297-.855-6.594-3.053-9.158L33.58 108.642a13.599 13.599 0 010-17.095l11.356-14.165a13.842 13.842 0 003.053-9.158l-.855-18.072c-.366-6.35 3.908-12.088 10.013-13.798l17.461-4.762c3.175-.855 5.984-2.93 7.815-5.739l9.89-15.141c3.542-5.373 10.258-7.57 16.241-5.25l16.973 6.349a13.16 13.16 0 009.647 0z" fill="#fff" stroke="url(#paint1_linear)"/><path d="M130.288 183.25c45.656 0 82.667-37.011 82.667-82.667 0-45.655-37.011-82.666-82.667-82.666-45.655 0-82.666 37.01-82.666 82.666s37.01 82.667 82.666 82.667z" fill="url(#paint2_linear)"/><g filter="url(#filter0_d)"><path d="M129.437 155.654c30.617 0 55.436-24.82 55.436-55.437 0-30.616-24.819-55.436-55.436-55.436S74 69.6 74 100.217s24.82 55.437 55.437 55.437z" fill="#90DAD8"/></g><path d="M129.414 65.447l-4.655 2.361.862-5.06L122 59.037l5.172-.675 2.242-4.554 2.414 4.554 5.172.675-3.793 3.71.862 5.061-4.655-2.361zm-26.257 4.589l-2.564 1.343.489-2.809-1.954-1.831 2.686-.489 1.343-2.442 1.222 2.442 2.686.489-1.954 1.831.489 2.809-2.443-1.343zm52.629 0l-2.442 1.343.488-2.809-1.954-1.831 2.687-.489 1.221-2.442 1.221 2.442 2.808.489-2.075 1.831.488 2.809-2.442-1.343zm-95.221 32.868l-2.686 1.466.488-3.053-2.198-2.076 3.053-.488 1.343-2.687 1.343 2.687 2.931.488-2.076 2.076.489 3.053-2.687-1.466zm139.325 0l-2.686 1.465.488-3.052-2.076-2.076 2.931-.489 1.343-2.686 1.343 2.686 3.053.489-2.198 2.076.488 3.052-2.686-1.465zm-95.733 62.885l-2.564 1.343.489-2.809-1.954-1.831 2.686-.489 1.343-2.442 1.222 2.442 2.686.489-1.954 1.831.489 2.809-2.443-1.343zm26.254 6.593l-3.297 1.71.61-3.663-2.564-2.687 3.663-.488 1.588-3.297 1.709 3.297 3.663.488-2.686 2.687.611 3.663-3.297-1.71zm26.375-6.593l-2.442 1.343.488-2.809-1.954-1.831 2.687-.489 1.221-2.442 1.221 2.442 2.808.489-2.075 1.831.488 2.809-2.442-1.343z" fill="#fff"/><path d="M236.522 158.096c-70.701-11.234-142.622-11.234-213.2 0-1.71-10.502-3.297-20.881-5.006-31.26 73.875-11.722 149.215-11.722 223.212 0-1.71 10.379-3.297 20.758-5.006 31.26z" fill="#FFAE11"/><path d="M42.72 135.046l-5.89 1.108 2.219 9.981-2.848.536-2.714-12.304 8.739-1.645.494 2.324zm6.485-.644c1.48-.243 2.684-.075 3.614.502.927.565 1.526 1.555 1.797 2.969l1.043 5.427-2.594.425-.227-1.185c-.352.97-1.238 1.571-2.659 1.803-.734.121-1.397.102-1.99-.057-.58-.16-1.054-.435-1.422-.824a2.773 2.773 0 01-.712-1.415c-.17-.884.029-1.634.595-2.249.577-.617 1.565-1.04 2.962-1.269l2.203-.361c-.116-.601-.387-1.031-.816-1.289-.43-.269-1.012-.344-1.747-.224a4.727 4.727 0 00-1.462.495c-.456.233-.83.513-1.121.84l-1.365-1.764c.45-.451 1.018-.835 1.702-1.154a8.498 8.498 0 012.199-.67zm1.31 7.972a2.458 2.458 0 001.2-.525c.325-.284.523-.651.595-1.1l-.186-.972-1.9.311c-1.138.186-1.635.65-1.492 1.393.068.353.258.614.571.782.323.153.727.19 1.213.111zm12.308-9.98a4.918 4.918 0 012.525.287 4.516 4.516 0 012.01 1.485c.534.677.881 1.507 1.04 2.49.16.983.092 1.877-.203 2.68a4.374 4.374 0 01-1.45 1.963c-.66.503-1.436.816-2.328.939-1.224.169-2.25-.083-3.075-.756l.722 4.46-2.781.385-2.108-13.007 2.657-.367.179 1.102c.555-.925 1.492-1.478 2.812-1.661zm.745 7.636c.713-.098 1.257-.416 1.632-.952.385-.55.512-1.227.381-2.033-.13-.805-.466-1.413-1.006-1.823-.53-.423-1.152-.585-1.865-.487-.714.099-1.263.423-1.648.973-.374.536-.497 1.207-.366 2.012.13.806.46 1.42.991 1.844.54.409 1.167.565 1.88.466zm10.524-9.003c1.49-.168 2.683.06 3.576.683.892.612 1.432 1.632 1.62 3.059l.725 5.479-2.611.294-.158-1.196c-.407.952-1.326 1.508-2.757 1.67-.74.083-1.4.031-1.981-.157-.57-.189-1.027-.488-1.371-.896a2.758 2.758 0 01-.628-1.45c-.118-.893.123-1.632.724-2.219.612-.588 1.621-.962 3.028-1.12l2.218-.251c-.08-.606-.326-1.049-.738-1.329-.414-.291-.99-.395-1.73-.312a4.772 4.772 0 00-1.487.421c-.469.21-.858.471-1.167.784l-1.26-1.832c.477-.428 1.065-.784 1.766-1.069a8.548 8.548 0 012.231-.559zm.845 8.036a2.455 2.455 0 001.228-.464c.34-.268.558-.625.657-1.07l-.13-.982-1.914.216c-1.145.129-1.667.569-1.568 1.318.047.357.222.627.524.81.313.17.714.227 1.203.172zm7.2-8.723l2.78-.243.386 3.76 4.196-.367-.386-3.761 2.797-.244.989 9.633-2.798.245-.369-3.599-4.196.367.37 3.599-2.78.244-.989-9.634zm21.548.714l-3.27.209.552 7.36-2.784.178-.552-7.36-3.27.209-.172-2.297 9.323-.596.173 2.297zm2.056-2.379l2.787-.113.273 5.754 4.44-5.944 2.571-.104.458 9.673-2.787.113-.273-5.754-4.422 5.943-2.589.105-.458-9.673zm21.905-.578l.175 9.682-2.501.038-.05-2.771-2.07.032-1.786 2.8-2.988.046 2.157-3.202c-.677-.254-1.199-.623-1.568-1.11-.357-.498-.542-1.102-.555-1.81-.021-1.139.371-2.021 1.176-2.646.817-.637 1.945-.966 3.385-.988l4.625-.071zm-4.53 2.356c-.6.009-1.054.124-1.362.345-.296.22-.439.57-.431 1.05.009.48.159.832.451 1.056.304.211.756.312 1.356.303l2.106-.033-.05-2.753-2.07.032zm19.267 3.851l-1.458-.034-.098 3.671-2.807-.064.258-9.68 2.807.063-.1 3.761 1.512.035 2.727-3.701 2.988.068-3.507 4.565 3.482 5.12-3.311-.075-2.493-3.729zm11.492-5.734c1.499.069 2.63.482 3.394 1.238.765.744 1.108 1.835 1.031 3.273l-.3 5.518-2.625-.121.065-1.205c-.576.875-1.583 1.279-3.022 1.212-.743-.034-1.383-.19-1.921-.467-.526-.277-.92-.643-1.184-1.1a2.704 2.704 0 01-.35-1.53c.049-.899.423-1.59 1.122-2.074.711-.484 1.774-.693 3.189-.627l2.229.103c.033-.611-.127-1.087-.481-1.428-.354-.353-.902-.546-1.645-.581a4.84 4.84 0 00-1.542.181c-.5.133-.931.33-1.294.589l-.9-2.006c.547-.347 1.192-.605 1.934-.775a8.65 8.65 0 012.3-.2zm-.653 8.06c.48.022.911-.066 1.294-.264.384-.211.666-.528.845-.952l.054-.989-1.924-.089c-1.151-.053-1.747.298-1.788 1.053-.019.359.103.653.367.882.277.217.661.336 1.152.359zm17.397-6.863l-.79 9.652-2.801-.195.293-3.588c-.847.349-1.761.49-2.743.421-1.305-.091-2.268-.453-2.891-1.086-.609-.644-.863-1.587-.761-2.831l.248-3.032 2.801.195-.233 2.853c-.048.586.067 1.021.344 1.305.29.285.722.447 1.297.487a4.744 4.744 0 002.103-.322l.332-4.054 2.801.195zm11.947 6.02c-.004.036-.049.285-.137.747l-7.293-.688c.065.609.324 1.11.775 1.502.452.392 1.042.622 1.771.691a3.82 3.82 0 001.35-.09 3.415 3.415 0 001.172-.613l1.31 1.751c-1.023.952-2.406 1.346-4.151 1.181-1.087-.102-2.026-.401-2.816-.898-.789-.508-1.368-1.159-1.739-1.953-.371-.795-.504-1.669-.399-2.623.104-.942.419-1.768.944-2.478a4.832 4.832 0 012.041-1.597c.836-.355 1.738-.487 2.706-.396.944.089 1.775.372 2.495.85a4.288 4.288 0 011.599 1.922c.359.793.483 1.69.372 2.692zm-4.681-3.351c-.634-.06-1.185.069-1.655.386-.469.317-.786.782-.95 1.393l4.749.447c-.029-.617-.238-1.125-.629-1.523-.389-.41-.894-.645-1.515-.703zm11.566 9.155c-1.024-.122-1.919-.44-2.683-.953a4.788 4.788 0 01-1.667-1.993c-.349-.802-.457-1.679-.324-2.63.132-.95.477-1.773 1.034-2.468a4.929 4.929 0 012.156-1.52c.881-.331 1.835-.435 2.859-.313 1.013.12 1.865.439 2.556.956a3.621 3.621 0 011.412 1.998l-2.324.902c-.378-.939-1.038-1.465-1.979-1.576-.727-.087-1.362.08-1.905.498-.543.419-.871 1.039-.985 1.859-.114.82.034 1.496.444 2.028.411.532.979.841 1.706.927.953.114 1.736-.24 2.347-1.062l1.999 1.434c-.452.719-1.089 1.248-1.911 1.585-.81.339-1.722.448-2.735.328zm16.185-5.399l-3.244-.458-1.205 7.281-2.762-.391 1.205-7.28-3.244-.459.376-2.273 9.251 1.307-.377 2.273zm8.984 3.832c1.052.562 1.47 1.408 1.253 2.539-.166.861-.619 1.473-1.361 1.838-.742.364-1.758.441-3.049.23l-5.098-.835 1.826-9.511 4.885.8c1.196.196 2.09.568 2.681 1.114.594.535.816 1.191.666 1.969-.09.472-.295.87-.614 1.194-.304.315-.701.536-1.189.662zm-4.639-1.416l2.096.343c.971.159 1.522-.103 1.654-.786.129-.672-.292-1.087-1.263-1.246l-2.096-.344-.391 2.033zm1.611 4.111c1.018.167 1.594-.097 1.728-.793.07-.365.003-.65-.203-.853-.203-.216-.559-.365-1.068-.449l-2.38-.39-.404 2.104 2.327.381zm11.971-5.9c1.474.277 2.529.842 3.164 1.694.638.84.801 1.963.491 3.369l-1.19 5.396-2.583-.486.26-1.177c-.713.781-1.777 1.038-3.192.772-.731-.137-1.341-.38-1.829-.728-.476-.346-.808-.763-.996-1.249a2.662 2.662 0 01-.099-1.557c.194-.879.677-1.508 1.449-1.888.783-.377 1.87-.435 3.262-.173l2.193.413c.132-.598.05-1.089-.245-1.475-.294-.397-.806-.664-1.537-.801a4.863 4.863 0 00-1.558-.037 4.055 4.055 0 00-1.378.4l-.568-2.103c.599-.265 1.28-.43 2.044-.494a8.705 8.705 0 012.312.124zm-1.953 7.852c.472.089.914.062 1.326-.08.415-.154.745-.427.991-.82l.214-.967-1.893-.356c-1.132-.213-1.78.05-1.943.788a1.01 1.01 0 00.221.92c.239.253.601.424 1.084.515zM94.27 83.808v21h-4.86v-17.1h-4.2v-3.9h9.06zm12.648 21.36c-1.74 0-3.29-.43-4.65-1.29-1.36-.86-2.43-2.1-3.21-3.72-.76-1.64-1.14-3.59-1.14-5.85s.38-4.2 1.14-5.82c.78-1.64 1.85-2.89 3.21-3.75 1.36-.86 2.91-1.29 4.65-1.29 1.74 0 3.29.43 4.65 1.29 1.36.86 2.42 2.11 3.18 3.75.78 1.62 1.17 3.56 1.17 5.82 0 2.26-.39 4.21-1.17 5.85-.76 1.62-1.82 2.86-3.18 3.72-1.36.86-2.91 1.29-4.65 1.29zm0-4.11c1.28 0 2.28-.55 3-1.65.74-1.1 1.11-2.8 1.11-5.1s-.37-4-1.11-5.1c-.72-1.1-1.72-1.65-3-1.65-1.26 0-2.26.55-3 1.65-.72 1.1-1.08 2.8-1.08 5.1s.36 4 1.08 5.1c.74 1.1 1.74 1.65 3 1.65zm20.361 4.11c-1.74 0-3.29-.43-4.65-1.29-1.36-.86-2.43-2.1-3.21-3.72-.76-1.64-1.14-3.59-1.14-5.85s.38-4.2 1.14-5.82c.78-1.64 1.85-2.89 3.21-3.75 1.36-.86 2.91-1.29 4.65-1.29 1.74 0 3.29.43 4.65 1.29 1.36.86 2.42 2.11 3.18 3.75.78 1.62 1.17 3.56 1.17 5.82 0 2.26-.39 4.21-1.17 5.85-.76 1.62-1.82 2.86-3.18 3.72-1.36.86-2.91 1.29-4.65 1.29zm0-4.11c1.28 0 2.28-.55 3-1.65.74-1.1 1.11-2.8 1.11-5.1s-.37-4-1.11-5.1c-.72-1.1-1.72-1.65-3-1.65-1.26 0-2.26.55-3 1.65-.72 1.1-1.08 2.8-1.08 5.1s.36 4 1.08 5.1c.74 1.1 1.74 1.65 3 1.65zm24.718-5.91c-1.54 0-2.8-.52-3.78-1.56-.96-1.06-1.44-2.47-1.44-4.23 0-1.76.48-3.16 1.44-4.2.98-1.06 2.24-1.59 3.78-1.59 1.54 0 2.79.53 3.75 1.59.96 1.04 1.44 2.44 1.44 4.2 0 1.76-.48 3.17-1.44 4.23-.96 1.04-2.21 1.56-3.75 1.56zm12.51-11.34h3.57l-14.34 21h-3.57l14.34-21zm-12.51 8.88c.68 0 1.21-.28 1.59-.84.4-.56.6-1.39.6-2.49 0-1.1-.2-1.93-.6-2.49-.38-.56-.91-.84-1.59-.84-.66 0-1.19.29-1.59.87-.4.56-.6 1.38-.6 2.46s.2 1.91.6 2.49c.4.56.93.84 1.59.84zm14.25 12.36c-1 0-1.9-.23-2.7-.69-.78-.48-1.39-1.16-1.83-2.04-.44-.88-.66-1.9-.66-3.06 0-1.16.22-2.18.66-3.06.44-.88 1.05-1.55 1.83-2.01.8-.48 1.7-.72 2.7-.72 1.54 0 2.79.53 3.75 1.59.98 1.04 1.47 2.44 1.47 4.2 0 1.76-.49 3.17-1.47 4.23-.96 1.04-2.21 1.56-3.75 1.56zm0-2.46c.68 0 1.21-.28 1.59-.84.4-.58.6-1.41.6-2.49 0-1.08-.2-1.9-.6-2.46-.38-.58-.91-.87-1.59-.87-.66 0-1.19.28-1.59.84-.4.56-.6 1.39-.6 2.49 0 1.1.2 1.93.6 2.49.4.56.93.84 1.59.84zM57.846 78.882L56.39 84.67l9.877 2.45-.284 1.133-10.867-2.714 1.735-6.905.994.248zm4.631-6.878c.442-1.005 1.036-1.666 1.78-1.98.735-.32 1.596-.264 2.583.167l4.78 2.089-.439.996-1.202-.526c.298.41.458.893.481 1.45.028.548-.096 1.134-.37 1.759-.379.859-.884 1.453-1.518 1.781-.634.329-1.288.346-1.962.05-.655-.285-1.08-.75-1.275-1.394-.19-.654-.058-1.498.397-2.533l1.076-2.446-.47-.205c-.664-.29-1.25-.325-1.754-.103-.515.217-.93.682-1.243 1.395a4.392 4.392 0 00-.369 1.515c-.041.517.01 1 .151 1.445l-.983.13a4.425 4.425 0 01-.144-1.74 5.83 5.83 0 01.481-1.85zm6.862 3.435c.258-.586.347-1.146.267-1.682-.089-.54-.342-1.022-.76-1.45l-1.261-.55-1.063 2.416c-.58 1.319-.41 2.178.509 2.58.45.196.881.181 1.296-.045.404-.231.742-.654 1.012-1.27zm-.061-15.468a4.28 4.28 0 011.65-1.476 3.794 3.794 0 012.09-.41c.743.06 1.46.322 2.152.785.7.469 1.22 1.034 1.558 1.697.338.663.479 1.36.423 2.093-.06.717-.312 1.408-.759 2.072a4.1 4.1 0 01-1.382 1.308 3.598 3.598 0 01-1.788.42l3.896 2.608-.634.942-9.575-6.407.608-.902 1.383.925a3.5 3.5 0 01-.313-1.826c.067-.635.298-1.245.691-1.829zm6.232 4.266a3.232 3.232 0 00.561-1.55 2.87 2.87 0 00-.345-1.578c-.262-.509-.659-.94-1.19-1.297-.532-.356-1.08-.555-1.642-.598a2.895 2.895 0 00-1.597.28 3.15 3.15 0 00-1.24 1.095 3.164 3.164 0 00-.556 1.572 3.01 3.01 0 00.345 1.579c.259.494.654.919 1.186 1.274.532.357 1.08.563 1.646.62a3.04 3.04 0 001.597-.279c.49-.25.901-.622 1.235-1.118zm1.712-13.813c.766-.788 1.553-1.2 2.36-1.235.8-.043 1.588.31 2.363 1.057l3.753 3.623-.758.78-.944-.91c.136.486.118.995-.054 1.525-.166.522-.486 1.028-.962 1.518-.654.674-1.336 1.054-2.044 1.14-.71.087-1.328-.125-1.858-.636-.514-.497-.75-1.08-.708-1.751.05-.679.468-1.424 1.256-2.235l1.862-1.916-.369-.356c-.522-.504-1.058-.74-1.609-.709-.559.025-1.11.316-1.652.874a4.388 4.388 0 00-.874 1.291c-.22.47-.34.94-.363 1.407l-.967-.222a4.42 4.42 0 01.472-1.68c.27-.569.636-1.09 1.096-1.565zm5.236 5.61c.446-.46.725-.953.837-1.483.105-.536.036-1.077-.207-1.623l-.99-.956-1.84 1.894c-1.003 1.033-1.144 1.898-.422 2.594.353.34.763.477 1.23.41.46-.076.924-.354 1.392-.836zm1.859-11.943l.923-.662 2.181 3.024 4.305-3.085-2.181-3.024.923-.662 4.924 6.826-.924.662-2.171-3.01-4.305 3.085 2.172 3.01-.924.662-4.923-6.826zm17.422-9.121l-2.86 1.397 3.268 6.648-1.021.498-3.268-6.647-2.861 1.398-.445-.905 6.742-3.294.445.904zm4.245-2.63l1.089-.322 1.906 6.41 3.48-8.001.967-.286 2.398 8.067-1.089.322-1.906-6.41-3.465 7.997-.982.29-2.398-8.067zm19.922-3.925l.927 8.365-1.034.113-.306-2.767-2.624.29-.318.034-1.634 2.981-1.225.135 1.759-3.156c-.666-.109-1.199-.361-1.597-.757-.398-.396-.634-.929-.708-1.596-.103-.933.136-1.679.718-2.237.582-.557 1.425-.897 2.527-1.018l3.515-.387zm-5.611 3.547c.137 1.24.996 1.774 2.576 1.6l2.528-.279-.415-3.753-2.45.27c-1.632.18-2.379.9-2.239 2.162zm21.51 2.13l-1.895-.31-.607 3.695-1.121-.183 1.365-8.305 1.121.183-.6 3.647 1.911.312 3.521-3.17 1.216.199-3.931 3.492 2.802 4.851-1.326-.216-2.456-4.195zm12.596-1.617c1.039.355 1.747.89 2.122 1.603.378.704.392 1.566.042 2.585l-1.695 4.933-1.03-.352.427-1.24c-.385.33-.854.53-1.408.6-.544.074-1.139 0-1.785-.22-.889-.303-1.522-.757-1.902-1.36-.379-.602-.449-1.252-.21-1.948.232-.676.662-1.138 1.288-1.386.637-.245 1.491-.184 2.561.181l2.528.863.167-.484c.235-.686.222-1.27-.04-1.755-.259-.494-.757-.867-1.494-1.118a4.397 4.397 0 00-1.542-.24 3.774 3.774 0 00-1.43.273l-.209-.967a4.451 4.451 0 011.724-.291c.631.001 1.26.109 1.886.323zm-2.87 7.118c.606.207 1.173.248 1.7.124.532-.134.993-.427 1.385-.88l.448-1.3-2.499-.854c-1.362-.465-2.207-.224-2.533.725-.159.464-.109.892.151 1.285.263.383.713.683 1.348.9zm17.181-.384l-4.028 7.39-.999-.542 1.677-3.076c-1.057-.088-1.999-.355-2.824-.802-.891-.483-1.476-1.06-1.753-1.732-.273-.681-.187-1.43.257-2.244l1.324-2.43.999.54-1.294 2.374c-.301.553-.352 1.071-.154 1.555.203.474.619.88 1.248 1.221.694.376 1.572.615 2.634.717l1.914-3.512.999.54zm7.933 11.539l-5.523-4.366c-.494.724-.672 1.487-.534 2.29.145.794.581 1.48 1.309 2.055.41.324.843.55 1.299.68a3.25 3.25 0 001.409.054l.044.972a3.607 3.607 0 01-1.742-.072 4.682 4.682 0 01-1.662-.865c-.678-.536-1.168-1.154-1.469-1.855a4.039 4.039 0 01-.261-2.164c.112-.741.424-1.433.935-2.075.512-.643 1.108-1.11 1.789-1.4a3.974 3.974 0 012.101-.277c.72.106 1.385.4 1.996.884.611.483 1.046 1.058 1.305 1.725a3.82 3.82 0 01.196 2.093c-.122.719-.443 1.404-.961 2.055l-.231.266zm-.917-5.375c-.636-.503-1.334-.722-2.095-.657-.745.063-1.406.397-1.983 1.002l4.682 3.701c.459-.697.631-1.418.514-2.163-.101-.746-.474-1.374-1.118-1.883zm3.821 14.159c-.554-.62-.916-1.298-1.085-2.032a3.951 3.951 0 01.114-2.155c.246-.717.676-1.348 1.29-1.894.615-.545 1.289-.894 2.025-1.047a3.986 3.986 0 012.16.136c.712.253 1.344.69 1.899 1.31.483.541.805 1.118.966 1.73a3.159 3.159 0 01-.015 1.833l-.996-.25a2.593 2.593 0 00-.009-1.404 3.067 3.067 0 00-.688-1.25 3.3 3.3 0 00-1.409-.954 2.892 2.892 0 00-1.618-.082c-.553.133-1.069.413-1.547.838-.487.432-.829.913-1.026 1.445a2.994 2.994 0 00-.105 1.612c.127.543.393 1.041.798 1.495a3.21 3.21 0 001.155.836c.435.184.901.241 1.397.172l.134 1.015a3.285 3.285 0 01-1.839-.186c-.591-.246-1.125-.635-1.601-1.168zm14.075 6.854l-1.723-2.678-6.242 3.99-.614-.955 6.241-3.99-1.722-2.678.849-.543 4.06 6.311-.849.543zm1.495 10.407c.215 1.151-.185 1.949-1.202 2.393-.674.295-1.302.272-1.882-.068-.581-.34-1.088-1.003-1.522-1.99l-1.539-3.5 7.712-3.37 1.494 3.399c.387.879.518 1.642.395 2.29-.123.647-.502 1.11-1.138 1.387-.42.183-.833.224-1.239.122-.392-.096-.752-.317-1.079-.663zm-1.419-4.025l1.017 2.315c.262.595.574 1 .936 1.214.367.224.765.243 1.195.055.43-.188.682-.49.755-.907.078-.406-.014-.907-.276-1.503l-1.018-2.314-2.609 1.14zm-2.385 3.958c.292.664.618 1.115.979 1.353s.772.257 1.231.056c.459-.2.73-.5.812-.896.092-.4-.006-.928-.294-1.583l-1.12-2.548-2.684 1.172 1.076 2.446zm10.524 7.863c.268 1.065.204 1.95-.191 2.653-.385.701-1.1 1.182-2.145 1.443l-5.061 1.263-.265-1.055 1.273-.318c-.487-.142-.91-.427-1.27-.853-.358-.417-.62-.956-.786-1.618-.229-.91-.194-1.689.106-2.335.299-.647.806-1.06 1.52-1.238.694-.173 1.315-.064 1.864.327.552.4.965 1.15 1.241 2.246l.651 2.591.497-.123c.703-.176 1.187-.506 1.45-.99.274-.486.316-1.106.127-1.861a4.39 4.39 0 00-.639-1.424 3.764 3.764 0 00-1.006-1.052l.698-.702c.455.326.849.756 1.181 1.288.342.53.594 1.117.755 1.758zm-7.533 1.469c.156.62.43 1.118.821 1.493.401.373.899.6 1.491.683l1.335-.333-.643-2.56c-.351-1.397-1.013-1.974-1.986-1.731-.476.119-.808.394-.996.826-.179.43-.186.97-.022 1.622z" fill="#fff"/><defs><linearGradient id="paint0_linear" x1="187.451" y1="49.631" x2="65.145" y2="191" gradientUnits="userSpaceOnUse"><stop stop-color="#67CDC9"/><stop offset="1" stop-color="#6FDEB8"/></linearGradient><linearGradient id="paint1_linear" x1="190.467" y1="51.215" x2="75.3" y2="196.374" gradientUnits="userSpaceOnUse"><stop stop-color="#67CDC9"/><stop offset="1" stop-color="#6FDEB8"/></linearGradient><linearGradient id="paint2_linear" x1="157.518" y1="171.68" x2="119.662" y2="39.72" gradientUnits="userSpaceOnUse"><stop stop-color="#66CCC9"/><stop offset="1" stop-color="#6FDEB8"/></linearGradient><filter id="filter0_d" x="46" y="16.781" width="166.873" height="166.873" filterUnits="userSpaceOnUse" color-interpolation-filters="sRGB"><feFlood flood-opacity="0" result="BackgroundImageFix"/><feColorMatrix in="SourceAlpha" values="0 0 0 0 0 0 0 0 0 0 0 0 0 0 0 0 0 0 127 0"/><feOffset/><feGaussianBlur stdDeviation="14"/><feColorMatrix values="0 0 0 0 0.374063 0 0 0 0 0.7875 0 0 0 0 0.774163 0 0 0 1 0"/><feBlend in2="BackgroundImageFix" result="effect1_dropShadow"/><feBlend in="SourceGraphic" in2="effect1_dropShadow" result="shape"/></filter></defs></svg>