<svg width="44" height="46" fill="none" xmlns="http://www.w3.org/2000/svg"><path d="M8.635 5.343c-5.391 6.583-5.876 12.402-7.073 17.341-.544 3.183-1.06 8.916.327 13.72 2.502 8.67 10.88 8.67 13.274 8.45 2.394-.22 9.575-1.097 18.932-7.134 9.358-6.036 10.337-13.39 7.508-18.658-3.418-6.365-11.794-12.731-18.497-15.475C18.799 1.824 12.769.295 8.635 5.343z" stroke="#66ccc9" stroke-width="2"/><path d="M29.235 19.915c-.488-.868-1.018-1.028-2.097-1.089-1.078-.073-3.788-.103-6.136-.103-2.352 0-5.063.03-6.14.102-1.077.062-1.608.22-2.1 1.09-.503.867-.762 2.361-.762 4.992v.009c0 2.619.259 4.124.762 4.982.492.869 1.022 1.026 2.099 1.1 1.078.063 3.789.1 6.141.1 2.348 0 5.058-.037 6.137-.1 1.079-.073 1.609-.23 2.097-1.099.508-.858.764-2.363.764-4.982v-.009c0-2.632-.256-4.126-.765-4.993zm-10.485 8.37v-6.75l5.625 3.375-5.625 3.375z" fill="#66ccc9"/></svg>