<svg width="44" height="46" fill="none" xmlns="http://www.w3.org/2000/svg"><path d="M8.635 5.343c-5.391 6.583-5.876 12.402-7.073 17.341-.544 3.183-1.06 8.916.327 13.72 2.502 8.67 10.88 8.67 13.274 8.45 2.394-.22 9.575-1.097 18.932-7.134 9.358-6.036 10.337-13.39 7.508-18.658-3.418-6.365-11.794-12.731-18.497-15.475C18.799 1.824 12.769.295 8.635 5.343z" stroke="#FEB616" stroke-width="2"/><g clip-path="url(#clip0)"><path d="M23.331 17.733h1.552V15.03a20.024 20.024 0 00-2.261-.12c-2.238 0-3.77 1.408-3.77 3.994v2.381h-2.47v3.022h2.47v7.603h3.027v-7.602h2.37l.376-3.022h-2.747v-2.082c.001-.873.236-1.471 1.453-1.471z" fill="#FEB616"/></g><defs><clipPath id="clip0"><path fill="#fff" transform="translate(12 14.91)" d="M0 0h17v17H0z"/></clipPath></defs></svg>