<svg width="43" height="46" fill="none" xmlns="http://www.w3.org/2000/svg"><path d="M8.453 5.343C3.19 11.926 2.717 17.745 1.549 22.684c-.531 3.183-1.035 8.916.319 13.72 2.442 8.67 10.621 8.67 12.958 8.45 2.337-.22 9.347-1.097 18.481-7.134 9.135-6.036 10.09-13.39 7.33-18.658C37.298 12.697 29.122 6.331 22.58 3.587 18.375 1.824 12.49.295 8.453 5.343z" stroke="#FEB616" stroke-width="2"/><g clip-path="url(#clip0)" fill="#FEB616"><path d="M24.398 15.91h-7.796c-2.538 0-4.602 1.943-4.602 4.331v7.338c0 2.388 2.064 4.331 4.602 4.331h7.796c2.538 0 4.602-1.943 4.602-4.33v-7.34c0-2.388-2.064-4.33-4.602-4.33zM20.5 28.285c-2.563 0-4.648-1.962-4.648-4.375 0-2.412 2.085-4.375 4.648-4.375 2.563 0 4.648 1.963 4.648 4.375 0 2.413-2.085 4.375-4.648 4.375zm4.76-7.718c-.758 0-1.374-.58-1.374-1.293s.616-1.293 1.373-1.293c.758 0 1.374.58 1.374 1.293s-.616 1.293-1.374 1.293z"/><path d="M20.5 20.474c-2.014 0-3.652 1.541-3.652 3.436s1.638 3.437 3.652 3.437c2.013 0 3.651-1.542 3.651-3.437 0-1.895-1.638-3.436-3.651-3.436zm4.76-1.554c-.209 0-.378.16-.378.355 0 .195.17.354.377.354.208 0 .377-.159.377-.354 0-.196-.169-.355-.377-.355z"/></g><defs><clipPath id="clip0"><path fill="#fff" transform="translate(12 15.91)" d="M0 0h17v16H0z"/></clipPath></defs></svg>