<svg width="43" height="46" fill="none" xmlns="http://www.w3.org/2000/svg"><path d="M8.453 5.343C3.19 11.926 2.717 17.745 1.549 22.684c-.531 3.183-1.035 8.916.319 13.72 2.442 8.67 10.621 8.67 12.958 8.45 2.337-.22 9.347-1.097 18.481-7.134 9.135-6.036 10.09-13.39 7.33-18.658C37.298 12.697 29.122 6.331 22.58 3.587 18.375 1.824 12.49.295 8.453 5.343z" stroke="#FEB616" stroke-width="2"/><g clip-path="url(#clip0)"><path d="M28.822 28.659c-.054-.086-.386-.772-1.987-2.183-1.675-1.477-1.45-1.238.568-3.792 1.229-1.556 1.72-2.506 1.566-2.912-.146-.387-1.05-.285-1.05-.285l-3.005.017s-.223-.029-.389.065c-.161.093-.265.306-.265.306s-.476 1.204-1.111 2.228c-1.339 2.16-1.875 2.274-2.094 2.14-.509-.312-.381-1.256-.381-1.926 0-2.094.333-2.967-.652-3.192-.327-.075-.567-.125-1.403-.133-1.073-.011-1.982.003-2.496.242-.342.16-.606.514-.445.534.199.025.65.116.888.424.309.398.297 1.294.297 1.294s.178 2.464-.413 2.77c-.407.21-.963-.218-2.157-2.179-.611-1.003-1.074-2.114-1.074-2.114s-.088-.207-.247-.317c-.193-.134-.463-.177-.463-.177l-2.857.017s-.43.012-.587.189c-.14.157-.011.483-.011.483s2.238 4.972 4.77 7.48c2.324 2.297 4.962 2.146 4.962 2.146h1.195s.361-.037.545-.226c.17-.174.164-.5.164-.5s-.024-1.523.721-1.747c.734-.221 1.677 1.472 2.675 2.124.755.493 1.33.385 1.33.385l2.67-.035s1.398-.082.736-1.126z" fill="#FEB616"/></g><defs><clipPath id="clip0"><path fill="#fff" transform="translate(9 14.91)" d="M0 0h20v19H0z"/></clipPath></defs></svg>